<svg xmlns="http://www.w3.org/2000/svg" xmlns:xlink="http://www.w3.org/1999/xlink" width="600" height="504.92" viewBox="0 0 600 504.92"><defs><linearGradient id="New_Gradient_Swatch_17" x1="221.07" y1="146.93" x2="250.37" y2="146.93" gradientUnits="userSpaceOnUse"><stop offset="0" stop-color="#5243aa"/><stop offset="1" stop-color="#8777d9"/></linearGradient><linearGradient id="New_Gradient_Swatch_12" x1="508.41" y1="377.8" x2="573.03" y2="377.8" gradientUnits="userSpaceOnUse"><stop offset="0" stop-color="#00b8d9"/><stop offset="1" stop-color="#79e2f2"/></linearGradient><linearGradient id="New_Gradient_Swatch_1" x1="483.96" y1="203.33" x2="505.76" y2="203.33" gradientUnits="userSpaceOnUse"><stop offset="0" stop-color="#de350b"/><stop offset="1" stop-color="#ff7452"/></linearGradient><linearGradient id="linear-gradient" x1="95.25" y1="369" x2="95.25" y2="119.98" gradientUnits="userSpaceOnUse"><stop offset="0.4" stop-color="#2684ff"/><stop offset="0.46" stop-color="#2d88ff"/><stop offset="0.56" stop-color="#4294ff"/><stop offset="0.68" stop-color="#63a6ff"/><stop offset="0.81" stop-color="#92c0ff"/><stop offset="0.96" stop-color="#cde1ff"/><stop offset="1" stop-color="#deebff"/></linearGradient><linearGradient id="New_Gradient_Swatch_7" x1="56.57" y1="335.01" x2="133.94" y2="335.01" gradientUnits="userSpaceOnUse"><stop offset="0" stop-color="#ffc400"/><stop offset="1" stop-color="#fff0b2"/></linearGradient><linearGradient id="linear-gradient-2" x1="69.59" y1="149.33" x2="120.23" y2="149.33" gradientUnits="userSpaceOnUse"><stop offset="0.11" stop-color="#36b37e"/><stop offset="0.79" stop-color="#79f2c0"/></linearGradient><linearGradient id="linear-gradient-3" x1="70.17" y1="225.59" x2="120.87" y2="225.59" gradientUnits="userSpaceOnUse"><stop offset="0" stop-color="#008da6"/><stop offset="0.09" stop-color="#00a5c0"/><stop offset="0.19" stop-color="#00b8d5"/><stop offset="0.29" stop-color="#00c3e1"/><stop offset="0.38" stop-color="#00c7e5"/><stop offset="0.78" stop-color="#00c7e5"/><stop offset="0.8" stop-color="#00c7e5"/><stop offset="1" stop-color="#79e2f2"/></linearGradient><linearGradient id="New_Gradient_Swatch_5" x1="481.89" y1="107.43" x2="507.12" y2="107.43" gradientUnits="userSpaceOnUse"><stop offset="0" stop-color="#ff991f"/><stop offset="1" stop-color="#ffc400"/></linearGradient><linearGradient id="New_Gradient_Swatch_8" x1="476.3" y1="278.73" x2="512.72" y2="278.73" gradientUnits="userSpaceOnUse"><stop offset="0" stop-color="#00875a"/><stop offset="1" stop-color="#57d9a3"/></linearGradient><linearGradient id="linear-gradient-4" x1="267.06" y1="312.6" x2="339.21" y2="240.44" gradientUnits="userSpaceOnUse"><stop offset="0.59" stop-color="#0065ff"/><stop offset="0.68" stop-color="#0c6dff"/><stop offset="0.85" stop-color="#2c84ff"/><stop offset="1" stop-color="#4c9aff"/></linearGradient><linearGradient id="linear-gradient-5" x1="448.52" y1="447.86" x2="548.38" y2="447.86" gradientUnits="userSpaceOnUse"><stop offset="0" stop-color="#deebff" stop-opacity="0"/><stop offset="1" stop-color="#4c9aff"/></linearGradient><linearGradient id="New_Gradient_Swatch_5-2" x1="473.41" y1="459.34" x2="508" y2="424.75" gradientTransform="matrix(1, 0.05, -1.88, 0.65, 859.63, 135.98)" xlink:href="#New_Gradient_Swatch_5"/><linearGradient id="New_Gradient_Swatch_14" x1="357.67" y1="144.95" x2="379.72" y2="144.95" gradientUnits="userSpaceOnUse"><stop offset="0" stop-color="#0052cc"/><stop offset="1" stop-color="#2684ff"/></linearGradient><linearGradient id="linear-gradient-6" x1="358.69" y1="155.31" x2="358.69" y2="95.27" gradientUnits="userSpaceOnUse"><stop offset="0" stop-color="#c1c7d0"/><stop offset="1" stop-color="#f4f5f7"/></linearGradient><linearGradient id="New_Gradient_Swatch_8-2" x1="526.16" y1="330.94" x2="536.23" y2="320.87" xlink:href="#New_Gradient_Swatch_8"/><linearGradient id="linear-gradient-7" x1="101.68" y1="469.22" x2="386.98" y2="469.22" gradientUnits="userSpaceOnUse"><stop offset="0" stop-color="#0065ff" stop-opacity="0"/><stop offset="0.45" stop-color="#0065ff"/></linearGradient><linearGradient id="linear-gradient-8" x1="275.99" y1="403.31" x2="318.07" y2="445.38" gradientUnits="userSpaceOnUse"><stop offset="0" stop-color="#b2d4ff"/><stop offset="1" stop-color="#2684ff"/></linearGradient><linearGradient id="linear-gradient-9" x1="447.39" y1="264.15" x2="562.7" y2="148.85" gradientUnits="userSpaceOnUse"><stop offset="0.09" stop-color="#2684ff"/><stop offset="1" stop-color="#deebff"/></linearGradient><linearGradient id="linear-gradient-10" x1="447.04" y1="419.74" x2="574.49" y2="419.74" xlink:href="#linear-gradient-7"/><linearGradient id="linear-gradient-11" x1="416.23" y1="433.36" x2="479.95" y2="433.36" xlink:href="#linear-gradient-7"/><linearGradient id="linear-gradient-12" x1="414.33" y1="134.36" x2="440.52" y2="108.17" gradientUnits="userSpaceOnUse"><stop offset="0" stop-color="#2684ff"/><stop offset="0.02" stop-color="#308aff"/><stop offset="0.16" stop-color="#65a7ff"/><stop offset="0.3" stop-color="#90bfff"/><stop offset="0.43" stop-color="#b2d2ff"/><stop offset="0.55" stop-color="#cae0ff"/><stop offset="0.66" stop-color="#d9e8ff"/><stop offset="0.75" stop-color="#deebff"/></linearGradient><linearGradient id="linear-gradient-13" x1="315.71" y1="183.47" x2="478.21" y2="183.47" gradientUnits="userSpaceOnUse"><stop offset="0" stop-color="#4c9aff"/><stop offset="1" stop-color="#deebff"/></linearGradient><linearGradient id="linear-gradient-14" x1="98.77" y1="389.9" x2="210.95" y2="389.9" xlink:href="#linear-gradient-7"/><linearGradient id="linear-gradient-15" x1="0" y1="421.84" x2="159.23" y2="421.84" xlink:href="#linear-gradient-7"/><linearGradient id="linear-gradient-16" x1="152.79" y1="257.01" x2="205.7" y2="257.01" xlink:href="#linear-gradient-12"/><linearGradient id="linear-gradient-17" x1="166.22" y1="193.61" x2="191.41" y2="193.61" xlink:href="#linear-gradient-12"/><linearGradient id="linear-gradient-18" x1="297.46" y1="378.59" x2="297.46" y2="331.45" gradientUnits="userSpaceOnUse"><stop offset="0" stop-color="#ffe380"/><stop offset="1" stop-color="#ffab00"/></linearGradient><linearGradient id="linear-gradient-19" x1="546.76" y1="422.36" x2="546.76" y2="328.24" gradientUnits="userSpaceOnUse"><stop offset="0" stop-color="#2684ff"/><stop offset="1" stop-color="#deebff"/></linearGradient><linearGradient id="linear-gradient-20" x1="541.5" y1="415.31" x2="541.5" y2="335.32" gradientUnits="userSpaceOnUse"><stop offset="0.57" stop-color="#e5e8ec" stop-opacity="0.1"/><stop offset="1" stop-color="#e5e8ec"/></linearGradient><linearGradient id="linear-gradient-21" x1="21.73" y1="320.82" x2="197.68" y2="144.87" xlink:href="#linear-gradient-19"/><clipPath id="clip-path"><path id="_Clipping_Path_" data-name="&lt;Clipping Path&gt;" d="M92.8,368.93a38.68,38.68,0,0,1-6.68-76.19l.68-.17A5.7,5.7,0,0,0,91.16,287V250.75a5.7,5.7,0,0,0-3.77-5.36,25.55,25.55,0,0,1-16.21-17A25,25,0,0,1,86.8,198.17l.63-.23a5.64,5.64,0,0,0,3.73-5.3V173.91a5.64,5.64,0,0,0-3.73-5.3l-.1,0a25.46,25.46,0,0,1-16.88-20.79A25,25,0,0,1,89,120.71a25.95,25.95,0,0,1,19.4,2.91,24.86,24.86,0,0,1,11.82,22.88c-.63,10.09-7.59,18.69-17.1,22.11h0a5.64,5.64,0,0,0-3.73,5.3v18.72a5.64,5.64,0,0,0,3.73,5.3l0,0a25.57,25.57,0,0,1,16.55,18.47,25,25,0,0,1-16,28.74l-.59.21a5.7,5.7,0,0,0-3.77,5.36V287a5.7,5.7,0,0,0,4.36,5.54l.68.17A38.68,38.68,0,0,1,92.8,368.93Z" style="fill:url(#linear-gradient)"/></clipPath><linearGradient id="linear-gradient-23" x1="234.28" y1="221.01" x2="370.7" y2="221.01" xlink:href="#linear-gradient-13"/><linearGradient id="linear-gradient-24" x1="146.78" y1="349.94" x2="210.39" y2="349.94" xlink:href="#linear-gradient-12"/><linearGradient id="linear-gradient-25" x1="146.78" y1="372.83" x2="210.39" y2="372.83" xlink:href="#linear-gradient-12"/><clipPath id="clip-path-2"><path id="_Clipping_Path_2" data-name="&lt;Clipping Path&gt;" d="M95.25,369c-2.17,0-17.76-.09-29-12.7,0,0-9.74-10.91-9.66-26a47,47,0,0,1,1.61-11h0a18.88,18.88,0,0,1,9.08-8.77c4.69-2,5.89,0,12.94-1.08,9.19-1.46,10.16-5.44,16.17-4.74s6.88,4.89,11.43,4.31c5.81-.73,6.68-7.86,11.43-8,4.93-.12,8.84,7.45,10.56,10.78a39,39,0,0,1,4.16,18.52,40.77,40.77,0,0,1-3.31,15.48C125.25,357.76,111.85,368.84,95.25,369Z" style="fill:url(#New_Gradient_Swatch_7)"/></clipPath><linearGradient id="New_Gradient_Swatch_5-3" x1="56.57" y1="335.01" x2="133.94" y2="335.01" xlink:href="#New_Gradient_Swatch_5"/><linearGradient id="linear-gradient-26" x1="78.31" y1="383.33" x2="153.51" y2="308.14" gradientUnits="userSpaceOnUse"><stop offset="0.23" stop-color="#e5e8ec" stop-opacity="0.1"/><stop offset="0.31" stop-color="#e5e8ec" stop-opacity="0.12"/><stop offset="0.38" stop-color="#e5e8ec" stop-opacity="0.17"/><stop offset="0.46" stop-color="#e5e8ec" stop-opacity="0.25"/><stop offset="0.54" stop-color="#e5e8ec" stop-opacity="0.38"/><stop offset="0.61" stop-color="#e5e8ec" stop-opacity="0.53"/><stop offset="0.69" stop-color="#e5e8ec" stop-opacity="0.72"/><stop offset="0.77" stop-color="#e5e8ec" stop-opacity="0.94"/><stop offset="0.78" stop-color="#e5e8ec"/></linearGradient><linearGradient id="linear-gradient-27" x1="-4988.06" y1="-2595.98" x2="-4988.06" y2="-2496.8" gradientTransform="translate(-4757.77 3163.33) rotate(122.51)" gradientUnits="userSpaceOnUse"><stop offset="0" stop-color="#ffd740" stop-opacity="0"/><stop offset="1" stop-color="#ffab00"/></linearGradient><clipPath id="clip-path-3"><path id="_Clipping_Path_3" data-name="&lt;Clipping Path&gt;" d="M94.57,170.49c9.41.31,16-5.57,17.43-6.89,4.31-4,10.26-12.5,7.55-18.08-1.19-2.44-6.86-4.4-18.16-8.22-5.85-2-6-1.79-8.93-3-8.83-3.68-10.23-6.53-13.38-6.08-5.18.74-9.59,9.63-9.48,17.31C69.77,157.7,81.37,170.06,94.57,170.49Z" style="fill:url(#linear-gradient-2)"/></clipPath><linearGradient id="linear-gradient-29" x1="69.59" y1="149.33" x2="120.23" y2="149.33" gradientUnits="userSpaceOnUse"><stop offset="0" stop-color="#cfd4db"/><stop offset="1" stop-color="#cfd4db" stop-opacity="0.1"/></linearGradient><linearGradient id="linear-gradient-30" x1="78.95" y1="187.41" x2="132.5" y2="133.86" xlink:href="#linear-gradient-26"/><clipPath id="clip-path-4"><path id="_Clipping_Path_4" data-name="&lt;Clipping Path&gt;" d="M95.89,247.28A25.91,25.91,0,0,1,79,240.92c-5-4.47-10.88-13.39-8-18.61,2.68-4.92,10.25-.86,21.64-6.58,10.91-5.48,12.77-12.64,18.19-11.76,6,1,9.94,10.91,10.12,18.34.23,9.54-5.66,16-7.07,17.39A25.74,25.74,0,0,1,95.89,247.28Z" style="fill:url(#linear-gradient-3)"/></clipPath><linearGradient id="linear-gradient-32" x1="70.23" y1="225.59" x2="120.88" y2="225.59" xlink:href="#linear-gradient-26"/><linearGradient id="linear-gradient-33" x1="83.41" y1="263.32" x2="136.97" y2="209.77" xlink:href="#linear-gradient-26"/><linearGradient id="linear-gradient-34" x1="218.77" y1="189.9" x2="254.17" y2="189.9" xlink:href="#linear-gradient-19"/><linearGradient id="linear-gradient-35" x1="482.29" y1="105.7" x2="506.73" y2="105.7" gradientTransform="translate(0)" xlink:href="#linear-gradient"/><clipPath id="clip-path-5"><path id="_Clipping_Path_5" data-name="&lt;Clipping Path&gt;" d="M494.34,118a12.6,12.6,0,0,0,8.68-3.43c2.15-2,5.11-6.23,3.76-9-.59-1.22-3.42-2.19-9-4.1-2.91-1-3-.89-4.45-1.5-4.4-1.83-5.1-3.25-6.67-3-2.58.37-4.78,4.8-4.72,8.63C482,111.6,487.76,117.76,494.34,118Z" style="fill:url(#New_Gradient_Swatch_5)"/></clipPath><clipPath id="clip-path-6"><path id="_Clipping_Path_6" data-name="&lt;Clipping Path&gt;" d="M494.51,260.52a18.21,18.21,0,1,0,18.21,18.21A18.23,18.23,0,0,0,494.51,260.52Z" style="fill:url(#New_Gradient_Swatch_8)"/></clipPath><linearGradient id="linear-gradient-36" x1="488.72" y1="213.56" x2="527.76" y2="174.52" gradientTransform="matrix(1, 0, 0, -1, -3.06, 463.33)" gradientUnits="userSpaceOnUse"><stop offset="0.29" stop-color="#e5e8ec" stop-opacity="0.1"/><stop offset="0.35" stop-color="#e5e8ec" stop-opacity="0.12"/><stop offset="0.42" stop-color="#e5e8ec" stop-opacity="0.17"/><stop offset="0.49" stop-color="#e5e8ec" stop-opacity="0.25"/><stop offset="0.56" stop-color="#e5e8ec" stop-opacity="0.38"/><stop offset="0.63" stop-color="#e5e8ec" stop-opacity="0.53"/><stop offset="0.7" stop-color="#e5e8ec" stop-opacity="0.72"/><stop offset="0.77" stop-color="#e5e8ec" stop-opacity="0.94"/><stop offset="0.78" stop-color="#e5e8ec"/></linearGradient><linearGradient id="linear-gradient-37" x1="302.49" y1="290.65" x2="302.49" y2="151.37" xlink:href="#linear-gradient-12"/><clipPath id="clip-path-7"><path d="M361.59,282.84l-36.94-57a18.68,18.68,0,0,1-9,5.07c-10,2.11-16.18-6.73-26.24-5.67-3.52.37-8.41,2-13.91,8.11l-32.07,49.45a5.43,5.43,0,0,0,4.55,8.38H357a5.43,5.43,0,0,0,4.55-8.38Z" style="fill:url(#linear-gradient-4)"/></clipPath><linearGradient id="linear-gradient-39" x1="93.24" y1="260.08" x2="198.13" y2="155.2" gradientTransform="matrix(1.09, 0.04, -0.04, 1, 165.4, 47.67)" gradientUnits="userSpaceOnUse"><stop offset="0" stop-color="#2684ff" stop-opacity="0"/><stop offset="1" stop-color="#b2d4ff"/></linearGradient><linearGradient id="linear-gradient-40" x1="216.87" y1="146.93" x2="254.57" y2="146.93" xlink:href="#linear-gradient-19"/><clipPath id="clip-path-8"><path id="_Clipping_Path_7" data-name="&lt;Clipping Path&gt;" d="M235.72,161.58a14.65,14.65,0,1,1,14.65-14.65A14.66,14.66,0,0,1,235.72,161.58Z" style="fill:url(#New_Gradient_Swatch_17)"/></clipPath><linearGradient id="linear-gradient-41" x1="225.32" y1="180.98" x2="273.71" y2="132.59" xlink:href="#linear-gradient-26"/><linearGradient id="N300" x1="-6569.38" y1="-162.51" x2="-6520.99" y2="-210.9" gradientTransform="translate(-6306.35 565.7) rotate(174.55)" gradientUnits="userSpaceOnUse"><stop offset="0" stop-color="#6c798f"/><stop offset="1" stop-color="#6c798f" stop-opacity="0.1"/></linearGradient><clipPath id="clip-path-9"><path id="_Clipping_Path_8" data-name="&lt;Clipping Path&gt;" d="M570.43,416.48a2.61,2.61,0,0,0,2.6-2.6V359.22a23,23,0,0,1-11.55,3.39c-18.08.11-32.71-24-44.18-23.49-1.72.08-8.88,0-8.88,12.41,0,0,0,62.35,0,62.35a2.61,2.61,0,0,0,2.6,2.6Z" style="fill:url(#New_Gradient_Swatch_12)"/></clipPath><linearGradient id="New_Gradient_Swatch_12-4" x1="492.3" y1="381.26" x2="598.99" y2="381.26" xlink:href="#New_Gradient_Swatch_12"/><linearGradient id="New_Gradient_Swatch_12-5" x1="488.71" y1="416.48" x2="593.78" y2="416.48" xlink:href="#New_Gradient_Swatch_12"/><linearGradient id="linear-gradient-42" x1="483.96" y1="189.23" x2="505.76" y2="189.23" xlink:href="#linear-gradient"/><clipPath id="clip-path-10"><path id="_Clipping_Path_9" data-name="&lt;Clipping Path&gt;" d="M485.41,180.89A5.43,5.43,0,0,0,484,182v33.68a5.4,5.4,0,0,0,3.61,5.07,11.35,11.35,0,0,1,7.27,8.36,11.35,11.35,0,0,1,7.31-8.36,5.4,5.4,0,0,0,3.62-5.08V177.57C503.54,185.94,491.78,178.77,485.41,180.89Z" style="fill:url(#New_Gradient_Swatch_1)"/></clipPath><linearGradient id="linear-gradient-43" x1="-4605.27" y1="932.05" x2="-4518.13" y2="844.91" gradientTransform="matrix(-0.96, 0.27, 0.27, 0.96, -4141.64, 556.99)" gradientUnits="userSpaceOnUse"><stop offset="0.34" stop-color="#e5e8ec"/><stop offset="0.35" stop-color="#e5e8ec" stop-opacity="0.94"/><stop offset="0.41" stop-color="#e5e8ec" stop-opacity="0.72"/><stop offset="0.46" stop-color="#e5e8ec" stop-opacity="0.53"/><stop offset="0.51" stop-color="#e5e8ec" stop-opacity="0.38"/><stop offset="0.56" stop-color="#e5e8ec" stop-opacity="0.25"/><stop offset="0.61" stop-color="#e5e8ec" stop-opacity="0.17"/><stop offset="0.66" stop-color="#e5e8ec" stop-opacity="0.12"/><stop offset="0.71" stop-color="#e5e8ec" stop-opacity="0.1"/></linearGradient><linearGradient id="linear-gradient-44" x1="-4416.1" y1="1483.14" x2="-4328.96" y2="1396" gradientTransform="matrix(-0.88, 0.47, 0.47, 0.88, -4043.14, 1005.46)" gradientUnits="userSpaceOnUse"><stop offset="0.45" stop-color="#e5e8ec"/><stop offset="0.46" stop-color="#e5e8ec" stop-opacity="0.94"/><stop offset="0.5" stop-color="#e5e8ec" stop-opacity="0.72"/><stop offset="0.53" stop-color="#e5e8ec" stop-opacity="0.53"/><stop offset="0.57" stop-color="#e5e8ec" stop-opacity="0.38"/><stop offset="0.61" stop-color="#e5e8ec" stop-opacity="0.25"/><stop offset="0.64" stop-color="#e5e8ec" stop-opacity="0.17"/><stop offset="0.68" stop-color="#e5e8ec" stop-opacity="0.12"/><stop offset="0.71" stop-color="#e5e8ec" stop-opacity="0.1"/></linearGradient><linearGradient id="New_Gradient_Swatch_11" x1="492.3" y1="381.26" x2="598.99" y2="381.26" gradientUnits="userSpaceOnUse"><stop offset="0" stop-color="#00a3bf"/><stop offset="1" stop-color="#00c7e5"/></linearGradient><linearGradient id="New_Gradient_Swatch_11-2" x1="488.71" y1="416.48" x2="593.78" y2="416.48" xlink:href="#New_Gradient_Swatch_11"/><linearGradient id="linear-gradient-45" x1="152.79" y1="267.8" x2="205.7" y2="267.8" xlink:href="#linear-gradient-12"/><linearGradient id="linear-gradient-46" x1="166.22" y1="198.3" x2="191.41" y2="198.3" xlink:href="#linear-gradient-12"/><linearGradient id="New_Gradient_Swatch_8-4" x1="222.43" y1="189.9" x2="250.51" y2="189.9" xlink:href="#New_Gradient_Swatch_8"/><linearGradient id="linear-gradient-47" x1="222.43" y1="195.14" x2="250.51" y2="195.14" gradientTransform="matrix(1, 0, 0, 1, 0, 0)" xlink:href="#linear-gradient-36"/><linearGradient id="linear-gradient-48" x1="406.8" y1="222.08" x2="455.22" y2="222.08" xlink:href="#linear-gradient-19"/><linearGradient id="New_Gradient_Swatch_5-5" x1="411.81" y1="222.08" x2="450.21" y2="222.08" xlink:href="#New_Gradient_Swatch_5"/><linearGradient id="linear-gradient-49" x1="411.81" y1="229.23" x2="450.21" y2="229.23" gradientTransform="matrix(1, 0, 0, 1, 0, 0)" xlink:href="#linear-gradient-36"/><linearGradient id="linear-gradient-50" x1="12683.91" y1="422.15" x2="12692.2" y2="422.15" gradientTransform="matrix(0.82, 0.57, -0.57, 0.82, -9949.4, -7227.92)" gradientUnits="userSpaceOnUse"><stop offset="0" stop-color="#b5917c"/><stop offset="1" stop-color="#9c7761"/></linearGradient><linearGradient id="linear-gradient-51" x1="12682.48" y1="420.75" x2="12689.38" y2="420.75" xlink:href="#linear-gradient-50"/><clipPath id="clip-path-12"><path id="_Clipping_Path_11" data-name="&lt;Clipping Path&gt;" d="M158.63,478.81l-10.42,0,0-6.62,3.39.87a4.43,4.43,0,0,0,1.83,2.78c1.53,1,3.21.22,4.39,1.4A3,3,0,0,1,158.63,478.81Z" style="fill:#172b4d"/></clipPath><clipPath id="clip-path-13"><path id="_Clipping_Path_12" data-name="&lt;Clipping Path&gt;" d="M175.38,476H164.87v-6.68l3.42.86a4.47,4.47,0,0,0,1.85,2.8c1.55,1,3.24.21,4.43,1.4A3,3,0,0,1,175.38,476Z" style="fill:#172b4d"/></clipPath><linearGradient id="linear-gradient-52" x1="162.62" y1="471.04" x2="162.62" y2="411.32" gradientUnits="userSpaceOnUse"><stop offset="0" stop-color="#57d9a3"/><stop offset="1" stop-color="#00875a"/></linearGradient><linearGradient id="linear-gradient-53" x1="153.43" y1="473.6" x2="153.43" y2="413.19" xlink:href="#linear-gradient-52"/><linearGradient id="linear-gradient-54" x1="149.73" y1="434.11" x2="149.73" y2="384.79" gradientUnits="userSpaceOnUse"><stop offset="0" stop-color="#c1c7d0"/><stop offset="1" stop-color="#fff"/></linearGradient><linearGradient id="linear-gradient-55" x1="151.17" y1="404.89" x2="151.17" y2="386.72" xlink:href="#linear-gradient-54"/><linearGradient id="New_Gradient_Swatch_5-6" x1="470.45" y1="403.81" x2="480.88" y2="403.81" xlink:href="#New_Gradient_Swatch_5"/><linearGradient id="New_Gradient_Swatch_5-7" x1="461.08" y1="403.82" x2="471.51" y2="403.82" gradientTransform="translate(160.51 -129.6) rotate(19.44)" xlink:href="#New_Gradient_Swatch_5"/><linearGradient id="linear-gradient-56" x1="407.04" y1="331.49" x2="445.48" y2="331.49" gradientTransform="translate(79.77 -82.67) rotate(12.21)" gradientUnits="userSpaceOnUse"><stop offset="0.17" stop-color="#dfe1e5"/><stop offset="0.99" stop-color="#fff"/></linearGradient><linearGradient id="linear-gradient-57" x1="444.87" y1="392.48" x2="476.62" y2="360.74" gradientTransform="matrix(1, 0, 0, 1, 0, 0)" xlink:href="#linear-gradient-56"/><linearGradient id="New_Gradient_Swatch_5-8" x1="461.4" y1="452.26" x2="495.99" y2="417.67" gradientTransform="matrix(1, 0, -1.85, 0.74, 842.23, 118.3)" xlink:href="#New_Gradient_Swatch_5"/><linearGradient id="New_Gradient_Swatch_5-9" x1="467.37" y1="455.49" x2="501.95" y2="420.9" gradientTransform="matrix(1, 0, -1.85, 0.74, 842.23, 118.3)" xlink:href="#New_Gradient_Swatch_5"/><linearGradient id="New_Gradient_Swatch_7-3" x1="455.44" y1="449.03" x2="490.02" y2="414.44" gradientTransform="matrix(1, 0, -1.85, 0.74, 842.23, 118.3)" xlink:href="#New_Gradient_Swatch_7"/></defs><title>Artboard 1 copy 5</title><g style="isolation:isolate"><g id="Layer_1" data-name="Layer 1"><ellipse cx="498.45" cy="447.86" rx="49.93" ry="4.21" style="fill:url(#linear-gradient-5)"/><path d="M537.88,451l-58-3c-.82,0-.23-.5,1.31-1l13-4.46a15.12,15.12,0,0,1,4.27-.88l58,3c.82,0,.23.5-1.31,1l-13,4.46A15.12,15.12,0,0,1,537.88,451Z" style="fill:url(#New_Gradient_Swatch_5-2)"/><path d="M386.37,132.65c-.35-.42-1.28-.14-1.79.17a2.42,2.42,0,0,0-1.11,1.52c-.17.84.31,1.08.34,2.27s-.41,1.84-.2,2,.67-.27,1-.72c.58-.83.19-1.35.68-2.33.39-.79.79-.74,1.07-1.6C386.43,133.66,386.65,133,386.37,132.65Z" style="fill:#72594b"/><path d="M383.67,134.91s1.88,2.75,1.79,3.62-.51,1.35-.22,1.57,1-.91,1.19-.92.36.25.62-.05a3.22,3.22,0,0,0,.76-1.08,8.06,8.06,0,0,0-.11-3.36c-.33-.72-.93-2.26-1.68-2.65s-2.19,2.18-2.19,2.18Z" style="fill:#72594b"/><path d="M338.09,97.15c.06.55-.79,1-1.37,1.16a2.42,2.42,0,0,1-1.87-.26c-.72-.46-.56-1-1.39-1.82s-1.61-1-1.56-1.24.66-.29,1.2-.21c1,.16,1.1.8,2.14,1.13.84.26,1.08,0,1.89.34C337.41,96.4,338,96.7,338.09,97.15Z" style="fill:#72594b"/><path d="M334.59,97.51s-.67-3.26-1.36-3.81-1.32-.57-1.28-.93,1.32-.05,1.49-.21.07-.43.47-.41a3.22,3.22,0,0,1,1.3.2,8.06,8.06,0,0,1,2.33,2.42c.29.74,1,2.24.74,3.05s-3.09.05-3.09.05Z" style="fill:#72594b"/><path d="M367.24,99.22c-.15.53.37.92.41,2.13a4.68,4.68,0,0,1-.41,2c3.2,1.23,5.92,1.34,6.62.23a4.05,4.05,0,0,0,.23-2.14,4.63,4.63,0,0,0-.51-2.5C372.29,97.11,367.65,97.8,367.24,99.22Z" style="fill:#72594b"/><path d="M387,132.46l-4.33,1.84q-.66-4.1-1.25-8.35-.37-2.72-.7-5.38l-6.33-11.83,5.39-3.54a34.68,34.68,0,0,1,5.38,12.1c.55,2.49.9,5.55,1.23,8.5C386.72,128.55,386.91,130.85,387,132.46Z" style="fill:#dfe1e5"/><path id="_Clipping_Path_13" data-name="&lt;Clipping Path&gt;" d="M377.65,123.51a9.46,9.46,0,0,0-.52-1.17,10.64,10.64,0,0,0-.83-1.31c-.29.06-.75.14-1.34.21s-.91.06-1.11.07c-1.21.07-3.55.17-10,.21a12.2,12.2,0,0,0-1.08,1.32,11.85,11.85,0,0,0-2,4.85c-2.55,13.93-2.67,19.2-2.67,19.2s-.32,9.71-.4,20.25a2.8,2.8,0,0,0,.63.94,3.13,3.13,0,0,0,2.22.81,3.57,3.57,0,0,0,2.1-.72,25.85,25.85,0,0,0,2.36-5.78,23.73,23.73,0,0,0,.84-6,23.45,23.45,0,0,0-.66-5.74,49.55,49.55,0,0,1,6.57-13.31q.35,8,.92,16.22.42,6,.93,11.82a4.47,4.47,0,0,0,4.93.13,31.44,31.44,0,0,0,.48-10.31,31,31,0,0,0-1.08-5.17c.39-1.62.75-3.38,1-5.27.27-1.68.45-3.28.58-4.78,0,0,.69-8-.6-12.72C378.66,126.22,377.94,124.3,377.65,123.51Z" style="fill:url(#New_Gradient_Swatch_14)"/><path d="M357.68,166.08a6.81,6.81,0,0,0,3,1.28,7.92,7.92,0,0,0,2.68,0c-.39,2.11-.8,3.81-1.1,5a23.92,23.92,0,0,0-1.22,6.79c0,.56,0,1,.06,1.31l-2.88.24-.52-.4-.73.48-7.31.64c-.46,0-.81-.3-.7-.67h0l2.85-1c3-1.05,5-3.4,5.17-6,.13-1.76.28-3.7.44-5.09Q357.51,167.33,357.68,166.08Z" style="fill:#172b4d"/><path id="_Clipping_Path_14" data-name="&lt;Clipping Path&gt;" d="M379.8,105.2a22.16,22.16,0,0,0-3.42-1.71,18.74,18.74,0,0,0-1.86-.64c-3.87-1.09-13.11-.45-16.8-.25-1.66.09-4.19.19-7.33.14Q347.15,101,343.75,99q-3.12-1.85-6-3.7l-2.65,3.17a47.09,47.09,0,0,0,14.15,10.37A42.81,42.81,0,0,0,362,110.74a8.17,8.17,0,0,0-.51,2.22,8.51,8.51,0,0,0,.88,4.49q-1.13,4.52-2.26,9-3.14,12.61-6.2,25.17a30.7,30.7,0,0,0,28.33.34c-1.34-12.33-2.49-21.49-3.65-28a36.94,36.94,0,0,1-.39-12.38A34.94,34.94,0,0,1,379.8,105.2Z" style="fill:url(#linear-gradient-6)"/><path d="M368.84,90.56a14.37,14.37,0,0,0-2.35,3.68c-.06.17-.08.25-.42.43s-.8.26-.71.51.59.59.65.81l-.41,2.95a.75.75,0,0,0,.47.81l.87.34,4.81,1.88c-.06-.19-1.82-5-1.8-5.27s.07-.85-.25-1-.83-2.95-1-3.32a1.41,1.41,0,0,1,0-1C368.78,90.88,368.84,90.56,368.84,90.56Z" style="fill:#72594b"/><path d="M376.86,99.66a4.82,4.82,0,0,1-3.55,1.75c-2-.07-3.85-1.71-3.91-3.14a10.31,10.31,0,0,0,.15-2.21c-.07-.54-.27-1.32-.57-1.34s-.52.76-.72.72-.19-.9-.19-1.39c0-2.17-.45-2.28-.27-3.14a4.35,4.35,0,0,1,2.37-2.63,5.67,5.67,0,0,1,4.89.36,7.4,7.4,0,0,1,3.5,7.62A6.48,6.48,0,0,1,376.86,99.66Z" style="fill:#253858"/><path d="M381.16,94.83a3.62,3.62,0,0,1-2.67,1.32c-1.49-.05-2.89-1.28-2.94-2.36a7.74,7.74,0,0,0,.12-1.66c-.06-.41-.2-1-.43-1s-.39.57-.54.54-.14-.68-.14-1c0-1.63-.34-1.72-.21-2.36a3.27,3.27,0,0,1,1.78-2,4.26,4.26,0,0,1,3.68.27,5.56,5.56,0,0,1,2.63,5.73A4.87,4.87,0,0,1,381.16,94.83Z" style="fill:#253858"/><path d="M358.69,141.05h6.83a0,0,0,0,1,0,0v4a3.42,3.42,0,0,1-3.42,3.42h0a3.42,3.42,0,0,1-3.42-3.42v-4A0,0,0,0,1,358.69,141.05Z" transform="translate(33.64 -65.45) rotate(10.83)" style="fill:#dfe1e5"/><path d="M373.44,165.37a27.48,27.48,0,0,1,.37,3.69c.09,2.82-.32,3.6-.73,4.05a4.11,4.11,0,0,1-1,.75,4.23,4.23,0,0,1-1.91.54v.46c.39.21.95.5,1.63.8s.61.23,1.78.7a6.72,6.72,0,0,0,1.94.66,3.56,3.56,0,0,0,1.29-.13l1.88-11.53Z" style="fill:#172b4d"/><line x1="235.72" y1="161.58" x2="235.72" y2="217.03" style="fill:none;stroke:#b2d4ff;stroke-linecap:round;stroke-miterlimit:10;stroke-width:2.55359698732051px"/><path d="M537.06,327.68a5.87,5.87,0,1,1-11.73,0c0-3.24,5.87-11.85,5.87-11.85S537.06,324.44,537.06,327.68Z" style="fill:url(#New_Gradient_Swatch_8-2)"/><path d="M346.23,352.28c0-11.24,9.11-34.52,20.35-34.52s20.36,23.28,20.36,34.52" style="fill:none;stroke:#b2d4ff;stroke-linecap:round;stroke-linejoin:round;stroke-width:2.38712786112669px"/><rect x="101.68" y="461.42" width="285.3" height="15.6" style="opacity:0.25;fill:url(#linear-gradient-7)"/><rect x="292.03" y="387.27" width="9.99" height="74.16" style="fill:url(#linear-gradient-8)"/><line x1="283.48" y1="217.71" x2="490.45" y2="217.71" style="fill:none;stroke:#b2d4ff;stroke-linecap:round;stroke-miterlimit:10;stroke-width:2.55359698732051px"/><path d="M506.59,298.31a23,23,0,0,0-6.17-41.83v-9.15H496.9V236.87h3.46v-5.48a5.56,5.56,0,0,1,5.56-5.56h0a5.56,5.56,0,0,0,5.56-5.56V158.19a5.56,5.56,0,0,0-5.56-5.56h0a5.56,5.56,0,0,1-5.56-5.56v-5.48H496.9V123.22a17.7,17.7,0,1,0-4.79,0v18.37h-2.79v5.48a5.56,5.56,0,0,1-5.56,5.56,5.56,5.56,0,0,0-5.56,5.56v62.08a5.56,5.56,0,0,0,5.56,5.56,5.56,5.56,0,0,1,5.56,5.56v5.48h2.79v10.46h-3.41v9.12a23,23,0,0,0,0,44.55h0l42.45,15.76,1.49-3.68Z" style="fill:url(#linear-gradient-9)"/><path d="M215.31,437.65h.2a2.54,2.54,0,0,1,2.54,2.54v58.07a0,0,0,0,1,0,0h-5.28a0,0,0,0,1,0,0V440.2A2.54,2.54,0,0,1,215.31,437.65Z" transform="translate(-252.55 683.37) rotate(-90)" style="fill:#4c9aff"/><ellipse cx="510.77" cy="419.74" rx="63.73" ry="8.42" style="opacity:0.25;fill:url(#linear-gradient-10)"/><ellipse cx="448.09" cy="433.36" rx="31.86" ry="4.21" style="opacity:0.25;fill:url(#linear-gradient-11)"/><path d="M425.06,217.59c0-3.77,11.9-3.77,11.9-7.55s-11.9-3.77-11.9-7.55,11.9-3.77,11.9-7.55-11.9-3.77-11.9-7.55,11.9-3.77,11.9-7.55-11.9-3.77-11.9-7.55,11.9-3.77,11.9-7.55-11.9-3.77-11.9-7.55a2.28,2.28,0,0,1,1.18-1.83,5.91,5.91,0,0,0,2.63-4.83V144.9" style="fill:none;stroke:#b2d4ff;stroke-linecap:round;stroke-miterlimit:10;stroke-width:2.55359698732051px"/><path d="M425.06,218.07c0,3.77,11.9,3.77,11.9,7.55s-11.9,3.77-11.9,7.55,11.9,3.77,11.9,7.55-11.9,3.77-11.9,7.55S437,252,437,255.81s-11.9,3.77-11.9,7.55,11.9,3.77,11.9,7.55-11.9,3.77-11.9,7.55a2.28,2.28,0,0,0,1.18,1.83,5.91,5.91,0,0,1,2.63,4.83v5.65" style="fill:none;stroke:#b2d4ff;stroke-linecap:round;stroke-miterlimit:10;stroke-width:2.55359698732051px"/><path d="M402.6,97.87l20.63,31.81v19.43h10.43V129.68L454.3,97.87a5.34,5.34,0,0,0-4.48-8.25H407.08A5.34,5.34,0,0,0,402.6,97.87Z" style="fill:#b2d4ff"/><path d="M426.16,146.19V129.68a2.92,2.92,0,0,0-.47-1.59L405.05,96.28a2.42,2.42,0,0,1,2-3.74h42.73a2.42,2.42,0,0,1,2,3.74l-20.63,31.81a2.92,2.92,0,0,0-.47,1.59v16.51Z" style="fill:#b2d4ff"/><rect x="427.17" y="141.89" width="2.57" height="13.64" rx="1.28" ry="1.28" transform="matrix(0, -1, 1, 0, 279.74, 577.16)" style="fill:#b2d4ff"/><g style="mix-blend-mode:multiply"><path id="_Clipping_Path_15" data-name="&lt;Clipping Path&gt;" d="M438.4,110.84c-8-.23-18-5.46-25.83-3l13.12,20.22a2.92,2.92,0,0,1,.47,1.59v16.51h4.59V129.68a2.92,2.92,0,0,1,.47-1.59l11.5-17.73A14.51,14.51,0,0,1,438.4,110.84Z" style="fill:url(#linear-gradient-12)"/></g><rect x="315.71" y="174.94" width="162.49" height="17.05" style="fill:url(#linear-gradient-13)"/><circle cx="452.2" cy="170.78" r="2.01" transform="translate(-24.23 89.12) rotate(-10.96)" style="fill:#f4f5f7"/><line x1="179.25" y1="217.71" x2="283.48" y2="217.71" style="fill:none;stroke:#b2d4ff;stroke-linecap:round;stroke-miterlimit:10;stroke-width:2.55359698732051px"/><line x1="262.42" y1="300.71" x2="262.42" y2="475.53" style="fill:none;stroke:#4c9aff;stroke-linecap:round;stroke-linejoin:round;stroke-width:2.55359698732051px"/><ellipse cx="154.86" cy="389.9" rx="56.09" ry="6.09" style="opacity:0.25;fill:url(#linear-gradient-14)"/><rect x="346.12" y="300.71" width="40.86" height="17.05" style="fill:#b2d4ff;stroke:#b2d4ff;stroke-linecap:round;stroke-linejoin:round;stroke-width:2.38712786112669px"/><ellipse cx="79.62" cy="421.84" rx="79.62" ry="10.52" style="opacity:0.25;fill:url(#linear-gradient-15)"/><rect x="136.8" y="250.26" width="84.03" height="4.79" transform="translate(431.47 73.84) rotate(90)" style="fill:#b2d4ff"/><circle cx="179.25" cy="257.01" r="31.56" style="fill:#b2d4ff"/><path d="M179.24,283.47A26.46,26.46,0,1,1,205.7,257,26.49,26.49,0,0,1,179.24,283.47Z" style="mix-blend-mode:multiply;fill:url(#linear-gradient-16)"/><circle cx="178.82" cy="193.61" r="17.7" style="fill:#b2d4ff"/><path d="M178.82,206.2a12.6,12.6,0,1,1,12.6-12.6A12.61,12.61,0,0,1,178.82,206.2Z" style="mix-blend-mode:multiply;fill:url(#linear-gradient-17)"/><path d="M311.87,368.1c-2,4.83-7.3,10.59-14.84,10.49A15.82,15.82,0,0,1,282.36,367a16.2,16.2,0,0,1,5.28-16.62c.08,3.21,2.34,5.6,4.72,5.74,2.79.16,5.05-2.65,5.14-4.9.11-2.85-3.34-3.23-4.55-7.43-1.16-4,.8-7.87,1.15-8.55a13,13,0,0,1,2.93-3.79,16.06,16.06,0,0,0,1.61,7.65c2.32,4.61,5.77,5.21,9,8.55C312.1,352.3,314.86,360.92,311.87,368.1Z" style="fill:url(#linear-gradient-18)"/><path d="M368.48,278.37,315.8,197.16V152.36h.11a4.89,4.89,0,0,0,0-9.78H289.07a4.89,4.89,0,1,0,0,9.78h.11v44.79L236.5,278.37a13.64,13.64,0,0,0,11.44,21.06H357A13.64,13.64,0,0,0,368.48,278.37Z" style="fill:#e5e8ec"/><path d="M588.87,328.24a2.11,2.11,0,1,1,0,4.23h0a10,10,0,0,0-10,10v71.45a8.48,8.48,0,0,1-8.48,8.48H511a8.48,8.48,0,0,1-8.48-8.48v-84.4a1.09,1.09,0,0,1,1.09-1.09Z" style="mix-blend-mode:multiply;fill:url(#linear-gradient-19)"/><path d="M511,415.31a1.43,1.43,0,0,1-1.43-1.43V335.43l63.83-.11a16.91,16.91,0,0,0-1.56,7.11v71.45a1.43,1.43,0,0,1-1.43,1.43Z" style="opacity:0.63;mix-blend-mode:screen;fill:url(#linear-gradient-20)"/><path d="M114.56,137.7c5.85,0,5.85,18.46,11.71,18.46S132.12,137.7,138,137.7s5.85,18.46,11.71,18.46,5.85-18.46,11.71-18.46,5.85,18.46,11.71,18.46S179,137.7,184.81,137.7s5.85,18.46,11.71,18.46,5.86-18.46,11.72-18.46c1.32,0,2.35.94,3.21,2.4a13.61,13.61,0,0,0,11.67,6.83h4.65" style="fill:none;stroke:#b2d4ff;stroke-linecap:round;stroke-miterlimit:10;stroke-width:2.55359698732051px"/><line x1="95.25" y1="335" x2="95.25" y2="411.27" style="fill:none;stroke:#0065ff;stroke-linecap:round;stroke-linejoin:round;stroke-width:2.55359698732051px"/><path d="M110,287.52v-9.7h-4.08V251.38a31.57,31.57,0,0,0,0-59.41V174.59A31.57,31.57,0,0,0,111.82,118l35.74-20.26-2-5L87.29,114.33h0a31.57,31.57,0,0,0-2.73,60.26V192a31.57,31.57,0,0,0,0,59.41v26.45H81.13v9.48a45.28,45.28,0,1,0,28.89.22Z" style="fill:url(#linear-gradient-21)"/><circle cx="166.68" cy="81.28" r="6.18" style="fill:#00875a"/><circle cx="150.18" cy="59.44" r="9.15" style="fill:#36b37e"/><path id="_Clipping_Path_16" data-name="&lt;Clipping Path&gt;" d="M92.8,368.93a38.68,38.68,0,0,1-6.68-76.19l.68-.17A5.7,5.7,0,0,0,91.16,287V250.75a5.7,5.7,0,0,0-3.77-5.36,25.55,25.55,0,0,1-16.21-17A25,25,0,0,1,86.8,198.17l.63-.23a5.64,5.64,0,0,0,3.73-5.3V173.91a5.64,5.64,0,0,0-3.73-5.3l-.1,0a25.46,25.46,0,0,1-16.88-20.79A25,25,0,0,1,89,120.71a25.95,25.95,0,0,1,19.4,2.91,24.86,24.86,0,0,1,11.82,22.88c-.63,10.09-7.59,18.69-17.1,22.11h0a5.64,5.64,0,0,0-3.73,5.3v18.72a5.64,5.64,0,0,0,3.73,5.3l0,0a25.57,25.57,0,0,1,16.55,18.47,25,25,0,0,1-16,28.74l-.59.21a5.7,5.7,0,0,0-3.77,5.36V287a5.7,5.7,0,0,0,4.36,5.54l.68.17A38.68,38.68,0,0,1,92.8,368.93Z" style="fill:url(#linear-gradient)"/><g style="clip-path:url(#clip-path)"><circle cx="96.92" cy="277.4" r="2.24" style="fill:#ffc400"/><circle cx="94.12" cy="286.1" r="2.24" style="fill:#ffe380"/><circle cx="83.99" cy="302.32" r="2.24" style="fill:#ffc400"/></g><circle cx="168.14" cy="64.53" r="4.06" style="fill:#79f2c0"/><circle cx="159.17" cy="39.18" r="6.01" style="fill:#00875a"/><circle cx="150.78" cy="79.16" r="4.06" style="fill:#79f2c0"/><circle cx="155.11" cy="92.43" r="4.06" style="fill:#36b37e"/><path d="M368.48,278.37,315.8,197.16V152.36h.11a4.89,4.89,0,0,0,0-9.78H289.07a4.89,4.89,0,1,0,0,9.78h.11v44.79L236.5,278.37a13.64,13.64,0,0,0,11.44,21.06H357A13.64,13.64,0,0,0,368.48,278.37Z" style="fill:url(#linear-gradient-23)"/><path d="M214.29,381,185.79,337V312.8h.06a2.64,2.64,0,1,0,0-5.29H171.32a2.64,2.64,0,0,0,0,5.29h.06V337L142.88,381a7.38,7.38,0,0,0,6.19,11.39h59A7.38,7.38,0,0,0,214.29,381Z" style="fill:#b2d4ff"/><path d="M149.07,387.27a2.27,2.27,0,0,1-1.91-3.51l29.33-45.21V312.62h4.2v25.93L210,383.76a2.27,2.27,0,0,1-1.91,3.51Z" style="mix-blend-mode:multiply;fill:url(#linear-gradient-24)"/><path d="M197.76,365a12.27,12.27,0,0,0-5.4-1.36c-3.36,0-4.42,1.49-6.8,1.91-6,1-9-6.89-15.55-7.17-2.22-.09-5.46.67-9.54,4.85l-13.3,20.51a2.27,2.27,0,0,0,1.91,3.51h59a2.27,2.27,0,0,0,1.91-3.51Z" style="mix-blend-mode:multiply;fill:url(#linear-gradient-25)"/><path id="_Clipping_Path_17" data-name="&lt;Clipping Path&gt;" d="M95.25,369c-2.17,0-17.76-.09-29-12.7,0,0-9.74-10.91-9.66-26a47,47,0,0,1,1.61-11h0a18.88,18.88,0,0,1,9.08-8.77c4.69-2,5.89,0,12.94-1.08,9.19-1.46,10.16-5.44,16.17-4.74s6.88,4.89,11.43,4.31c5.81-.73,6.68-7.86,11.43-8,4.93-.12,8.84,7.45,10.56,10.78a39,39,0,0,1,4.16,18.52,40.77,40.77,0,0,1-3.31,15.48C125.25,357.76,111.85,368.84,95.25,369Z" style="fill:url(#New_Gradient_Swatch_7)"/><g style="clip-path:url(#clip-path-2)"><g id="_Group_" data-name="&lt;Group&gt;"><path d="M95.25,369c-2.17,0-17.76-.09-29-12.7,0,0-9.74-10.91-9.66-26a47,47,0,0,1,1.61-11h0a18.88,18.88,0,0,1,9.08-8.77c4.69-2,5.89,0,12.94-1.08,9.19-1.46,10.16-5.44,16.17-4.74s6.88,4.89,11.43,4.31c5.81-.73,6.68-7.86,11.43-8,4.93-.12,8.84,7.45,10.56,10.78a39,39,0,0,1,4.16,18.52,40.77,40.77,0,0,1-3.31,15.48C125.25,357.76,111.85,368.84,95.25,369Z" style="fill:url(#New_Gradient_Swatch_5-3)"/></g><path d="M63.53,358.34c-.25-7.76,3.09-16.13,9-21.21,13.35-11.54,30.34,2.1,41.89-7.34,13.53-11.05,1.74-39.17,10.68-42.84,6.43-2.64,18.22,9.59,24.19,20,8,14,12.36,36.55,1.19,54.66-18.09,29.33-66.14,29.55-80.34,13.44A27.64,27.64,0,0,1,63.53,358.34Z" style="opacity:0.37;mix-blend-mode:screen;fill:url(#linear-gradient-26)"/><circle cx="80.13" cy="317.67" r="5.48" style="fill:#e5e8ec;mix-blend-mode:soft-light"/><path d="M77.08,274.39c6.68,4,11.94,11.27,13.07,19,2.56,17.46-18.07,24.45-16.33,39.27,2,17.35,32.09,22.52,30.39,32-1.23,6.85-17.88,10.21-29.88,9.64-16.1-.76-37.47-9.22-46.73-28.37-15-31,10.63-71.66,31.85-75A27.64,27.64,0,0,1,77.08,274.39Z" style="opacity:0.37;mix-blend-mode:multiply;fill:url(#linear-gradient-27)"/><circle cx="96.69" cy="291.64" r="2.98" style="fill:#e5e8ec;mix-blend-mode:soft-light"/><circle cx="97.92" cy="321.04" r="2.98" style="fill:#e5e8ec;mix-blend-mode:soft-light"/><circle cx="79.26" cy="357.73" r="2.98" style="fill:#e5e8ec;mix-blend-mode:soft-light"/></g><rect x="221.6" y="300.71" width="124.52" height="17.05" style="fill:#0065ff;stroke:#0065ff;stroke-linecap:round;stroke-linejoin:round;stroke-width:2.38712786112669px"/><rect x="221.22" y="458.76" width="124.9" height="17.05" style="fill:#0065ff;stroke:#0065ff;stroke-linecap:round;stroke-linejoin:round;stroke-width:2.39077447028518px"/><rect x="345.77" y="458.76" width="41.17" height="17.05" style="fill:#b2d4ff;stroke:#b2d4ff;stroke-linecap:round;stroke-linejoin:round;stroke-width:2.38712786112669px"/><polyline points="221.18 475.24 221.96 300.49 346.51 300.71 346.47 313.58 345.73 475.81" style="fill:none;stroke:#0065ff;stroke-linecap:round;stroke-linejoin:round;stroke-width:2.55359698732051px"/><path id="_Clipping_Path_18" data-name="&lt;Clipping Path&gt;" d="M94.57,170.49c9.41.31,16-5.57,17.43-6.89,4.31-4,10.26-12.5,7.55-18.08-1.19-2.44-6.86-4.4-18.16-8.22-5.85-2-6-1.79-8.93-3-8.83-3.68-10.23-6.53-13.38-6.08-5.18.74-9.59,9.63-9.48,17.31C69.77,157.7,81.37,170.06,94.57,170.49Z" style="fill:url(#linear-gradient-2)"/><g style="clip-path:url(#clip-path-3)"><g id="_Group_2" data-name="&lt;Group&gt;" style="mix-blend-mode:multiply"><path d="M94.57,170.49c9.41.31,16-5.57,17.43-6.89,4.31-4,10.26-12.5,7.55-18.08-1.19-2.44-6.86-4.4-18.16-8.22-5.85-2-6-1.79-8.93-3-8.83-3.68-10.23-6.53-13.38-6.08-5.18.74-9.59,9.63-9.48,17.31C69.77,157.7,81.37,170.06,94.57,170.49Z" style="fill:url(#linear-gradient-29)"/></g><path d="M68.42,169.61a19.72,19.72,0,0,1,6.38-15.1c9.51-8.22,21.61,1.49,29.83-5.23,9.64-7.87,1.24-27.89,7.61-30.51,4.58-1.88,13,6.83,17.23,14.25,5.71,10,8.8,26,.85,38.93-12.88,20.89-47.11,21-57.22,9.57A19.69,19.69,0,0,1,68.42,169.61Z" style="opacity:0.37;mix-blend-mode:screen;fill:url(#linear-gradient-30)"/></g><path id="_Clipping_Path_19" data-name="&lt;Clipping Path&gt;" d="M95.89,247.28A25.91,25.91,0,0,1,79,240.92c-5-4.47-10.88-13.39-8-18.61,2.68-4.92,10.25-.86,21.64-6.58,10.91-5.48,12.77-12.64,18.19-11.76,6,1,9.94,10.91,10.12,18.34.23,9.54-5.66,16-7.07,17.39A25.74,25.74,0,0,1,95.89,247.28Z" style="fill:url(#linear-gradient-3)"/><g style="clip-path:url(#clip-path-4)"><g id="_Group_3" data-name="&lt;Group&gt;" style="opacity:0.37;mix-blend-mode:screen"><path d="M95.89,247.28a26.37,26.37,0,0,1-21.56-11.86c-1.63-2.49-5.71-8.72-3.42-13.11,2.63-5,10.63-1.05,21.64-6.58s12.77-12.64,18.19-11.76c6.07,1,9.85,11,10.12,18.34a24.8,24.8,0,0,1-6,16.76C107.79,247.1,98,247.29,95.89,247.28Z" style="fill:url(#linear-gradient-32)"/></g><path d="M72.89,245.52a19.72,19.72,0,0,1,6.38-15.1c9.51-8.22,21.61,1.49,29.83-5.23,9.64-7.87,1.24-27.89,7.61-30.51,4.58-1.88,13,6.83,17.23,14.25,5.71,10,8.8,26,.85,38.93-12.88,20.89-47.11,21-57.22,9.57A19.69,19.69,0,0,1,72.89,245.52Z" style="opacity:0.37;mix-blend-mode:screen;fill:url(#linear-gradient-33)"/></g><circle cx="236.47" cy="189.9" r="17.7" style="fill:url(#linear-gradient-34)"/><path d="M494.51,117.92a12.22,12.22,0,1,1,12.22-12.22A12.23,12.23,0,0,1,494.51,117.92Z" style="fill:url(#linear-gradient-35)"/><path id="_Clipping_Path_20" data-name="&lt;Clipping Path&gt;" d="M494.34,118a12.6,12.6,0,0,0,8.68-3.43c2.15-2,5.11-6.23,3.76-9-.59-1.22-3.42-2.19-9-4.1-2.91-1-3-.89-4.45-1.5-4.4-1.83-5.1-3.25-6.67-3-2.58.37-4.78,4.8-4.72,8.63C482,111.6,487.76,117.76,494.34,118Z" style="fill:url(#New_Gradient_Swatch_5)"/><g style="clip-path:url(#clip-path-5)"><path d="M476.3,104.9a9.83,9.83,0,0,1,6.79-4.55c6.21-.83,8.6,6.53,13.86,6,6.17-.65,8.14-11.29,11.51-10.64,2.42.47,3.54,6.39,3.29,10.65-.34,5.71-3.44,13.25-10.28,16.46-11.07,5.19-25.38-4.1-26.46-11.64A9.81,9.81,0,0,1,476.3,104.9Z" style="fill:#ffc400;opacity:0.37;mix-blend-mode:screen"/></g><path id="_Clipping_Path_21" data-name="&lt;Clipping Path&gt;" d="M494.51,260.52a18.21,18.21,0,1,0,18.21,18.21A18.23,18.23,0,0,0,494.51,260.52Z" style="fill:url(#New_Gradient_Swatch_8)"/><g style="clip-path:url(#clip-path-6)"><path d="M478,262.74a14.38,14.38,0,0,0,4.65,11c6.93,6,15.75-1.09,21.75,3.81,7,5.74.9,20.34,5.55,22.24,3.34,1.37,9.46-5,12.56-10.39,4.16-7.26,6.42-19,.62-28.38-9.39-15.23-34.34-15.34-41.72-7A14.35,14.35,0,0,0,478,262.74Z" style="opacity:0.37;mix-blend-mode:screen;fill:url(#linear-gradient-36)"/></g><path d="M247.94,290.65a4.86,4.86,0,0,1-4.07-7.5l52.68-81.22a8.78,8.78,0,0,0,1.41-4.78V152.36a8.9,8.9,0,0,0-.06-1h9.18a8.9,8.9,0,0,0-.06,1v44.79a8.78,8.78,0,0,0,1.41,4.78l52.68,81.22a4.86,4.86,0,0,1-4.07,7.5Z" style="fill:url(#linear-gradient-37)"/><path d="M361.59,282.84l-36.94-57a18.68,18.68,0,0,1-9,5.07c-10,2.11-16.18-6.73-26.24-5.67-3.52.37-8.41,2-13.91,8.11l-32.07,49.45a5.43,5.43,0,0,0,4.55,8.38H357a5.43,5.43,0,0,0,4.55-8.38Z" style="fill:url(#linear-gradient-4)"/><g style="clip-path:url(#clip-path-7)"><circle cx="331.63" cy="263.6" r="6.82" style="fill:#0052cc"/><circle cx="290.25" cy="240.8" r="4.4" style="fill:#4c9aff"/><circle cx="265.97" cy="275.77" r="4.4" style="fill:#0065ff;mix-blend-mode:multiply"/><circle cx="314.64" cy="277.04" r="4.4" style="fill:#deebff"/><path d="M236.66,275.57a37.12,37.12,0,0,1,14.7-29.07c20.9-15.36,46.1,4.58,64.16-7.95,21.16-14.67,4.6-54.5,18.4-59.14,9.93-3.34,27.27,14.35,35.85,29.21,11.51,19.93,17,51.62-.9,76.26-29,39.9-102.22,37.6-123,14.36A36.9,36.9,0,0,1,236.66,275.57Z" style="opacity:0.37;fill:url(#linear-gradient-39)"/></g><circle cx="235.72" cy="146.93" r="18.85" style="fill:url(#linear-gradient-40)"/><path id="_Clipping_Path_22" data-name="&lt;Clipping Path&gt;" d="M235.72,161.58a14.65,14.65,0,1,1,14.65-14.65A14.66,14.66,0,0,1,235.72,161.58Z" style="fill:url(#New_Gradient_Swatch_17)"/><g style="clip-path:url(#clip-path-8)"><path d="M215.81,164.89a17.82,17.82,0,0,1,5.77-13.65c8.59-7.43,19.52,1.35,27-4.72,8.71-7.11,1.12-25.21,6.87-27.57,4.14-1.7,11.72,6.17,15.57,12.88,5.16,9,8,23.52.77,35.17-11.64,18.87-42.57,19-51.71,8.65A17.79,17.79,0,0,1,215.81,164.89Z" style="opacity:0.37;mix-blend-mode:screen;fill:url(#linear-gradient-41)"/><path d="M259.8,119.1a17.82,17.82,0,0,1-4.45,14.13c-7.85,8.21-19.56.51-26.39,7.26-8,7.91,1.28,25.2-4.23,28.1-4,2.09-12.26-5-16.72-11.34-6-8.47-10.15-22.66-4.1-34.94,9.8-19.89,40.57-23,50.65-13.52A17.79,17.79,0,0,1,259.8,119.1Z" style="opacity:0.37;mix-blend-mode:multiply;fill:url(#N300)"/></g><path d="M221.6,355.44a37.68,37.68,0,0,1,37.68-37.68" style="fill:none;stroke:#0065ff;stroke-linecap:round;stroke-linejoin:round;stroke-width:2.55359698732051px"/><path d="M346.12,355.44a37.68,37.68,0,0,0-37.68-37.68" style="fill:none;stroke:#0065ff;stroke-linecap:round;stroke-linejoin:round;stroke-width:2.55359698732051px"/><path id="_Clipping_Path_23" data-name="&lt;Clipping Path&gt;" d="M570.43,416.48a2.61,2.61,0,0,0,2.6-2.6V359.22a23,23,0,0,1-11.55,3.39c-18.08.11-32.71-24-44.18-23.49-1.72.08-8.88,0-8.88,12.41,0,0,0,62.35,0,62.35a2.61,2.61,0,0,0,2.6,2.6Z" style="fill:url(#New_Gradient_Swatch_12)"/><g style="clip-path:url(#clip-path-9)"><path d="M492.92,394.83c-4-19.76,12.59-53.95,15.49-45.38,2.65,7.83,6,20.35,25.09,25.32,14.5,3.76,34.52-3.6,39.54-15.54,2.85-6.78.32-13.77,6-18.79,2.43-2.15,6.8-4.32,10.06-3.24,9.87,3.27,15.55,38.29,1.34,61.33-20.29,32.91-74.22,33.16-90.15,15.08C495.59,408.26,494.33,401.79,492.92,394.83Z" style="opacity:0.37;mix-blend-mode:screen;fill:url(#New_Gradient_Swatch_12-4)"/><path d="M588.46,395.57c-4.64-6.22-12.48-10.68-20.23-11-17.63-.69-22.4,20.57-37.31,20.4-17.47-.19-25.8-29.52-35.08-26.82-6.68,1.95-8.26,18.86-6.42,30.73,2.46,15.93,13.15,36.28,33.17,43.46C555,464,592.72,434.19,593.76,412.74A27.64,27.64,0,0,0,588.46,395.57Z" style="opacity:0.37;mix-blend-mode:screen;fill:url(#New_Gradient_Swatch_12-5)"/></g><circle cx="98.48" cy="162.35" r="3.99" style="fill:#36b37e"/><circle cx="91.96" cy="143.44" r="2.77" style="fill:#57d9a3;opacity:0.37;mix-blend-mode:screen"/><circle cx="87.58" cy="156.27" r="1.61" style="fill:#79f2c0"/><circle cx="102.47" cy="116.08" r="1.61" style="fill:#36b37e"/><circle cx="92.75" cy="127.3" r="3.45" style="fill:#36b37e"/><circle cx="75.05" cy="304.98" r="3.22" style="fill:#fff0b2"/><circle cx="106.91" cy="301.02" r="5.38" style="fill:#ffab00"/><circle cx="81.43" cy="212.75" r="2.93" style="fill:#79e2f2"/><circle cx="100.92" cy="236.21" r="2.93" style="fill:#79e2f2"/><circle cx="302.72" cy="206.56" r="2.83" transform="translate(-33.18 353.11) rotate(-57.88)" style="fill:#b2d4ff"/><circle cx="300.81" cy="249.63" r="2.83" transform="translate(-70.55 371.65) rotate(-57.88)" style="fill:#b2d4ff"/><circle cx="296.22" cy="220" r="2.01" transform="translate(-47.61 353.9) rotate(-57.88)" style="fill:#3384ff"/><circle cx="297.97" cy="233.34" r="2.01" transform="translate(-58.09 361.63) rotate(-57.88)" style="fill:#3384ff"/><circle cx="94.94" cy="197.45" r="1.61" style="fill:#00c7e5"/><circle cx="90.32" cy="207.21" r="1.61" style="fill:#79e2f2"/><circle cx="93.44" cy="231.47" r="1.61" style="fill:#00a3bf"/><circle cx="93.44" cy="222.62" r="1.61" style="fill:#79e2f2"/><circle cx="90.32" cy="239.76" r="1.61" style="fill:#79e2f2"/><path d="M491.73,223.37a11.33,11.33,0,0,0-4.56-2.77,4.5,4.5,0,0,1-3.21-4.26V162.12a4.5,4.5,0,0,1,3.21-4.26,11.33,11.33,0,0,0,4.56-2.77,4.41,4.41,0,0,1,6.22,0,11.33,11.33,0,0,0,4.59,2.78,4.5,4.5,0,0,1,3.22,4.26v54.21a4.49,4.49,0,0,1-3.22,4.26,11.35,11.35,0,0,0-4.6,2.78A4.41,4.41,0,0,1,491.73,223.37Z" style="fill:url(#linear-gradient-42)"/><path id="_Clipping_Path_24" data-name="&lt;Clipping Path&gt;" d="M485.41,180.89A5.43,5.43,0,0,0,484,182v33.68a5.4,5.4,0,0,0,3.61,5.07,11.35,11.35,0,0,1,7.27,8.36,11.35,11.35,0,0,1,7.31-8.36,5.4,5.4,0,0,0,3.62-5.08V177.57C503.54,185.94,491.78,178.77,485.41,180.89Z" style="fill:url(#New_Gradient_Swatch_1)"/><g style="clip-path:url(#clip-path-10)"><path d="M554.69,201.15c-2.1-8.74-8.41-17.07-16.53-20.94-18.46-8.79-33.25,11.67-49.06,4.68-18.52-8.19-14-43.23-25.11-44.58-8-1-17.41,16.31-20.88,29.8-4.65,18.09-2.57,44.64,15.47,61.44,29.23,27.21,83,12.68,93.9-9.69A32,32,0,0,0,554.69,201.15Z" style="opacity:0.37;mix-blend-mode:screen;fill:url(#linear-gradient-43)"/><path d="M553,203.38c-4-8.07-12-14.81-20.72-16.8-19.94-4.53-29.88,18.68-46.84,15.33-19.86-3.93-23.13-39.11-34.28-38-8,.8-13.41,19.73-13.83,33.65-.57,18.67,7.28,44.12,28.57,56.55,34.48,20.13,83.75-5.83,89.49-30.05A32,32,0,0,0,553,203.38Z" style="opacity:0.37;mix-blend-mode:screen;fill:url(#linear-gradient-44)"/></g><circle cx="498.55" cy="173.73" r="4.84" style="fill:#ff5230"/><circle cx="490.25" cy="166.75" r="1.98" style="fill:#ff5230"/><circle cx="500.65" cy="160.93" r="1.98" style="fill:#ff5230"/><ellipse cx="296.84" cy="390.97" rx="7.83" ry="1.65" style="fill:#253858"/><ellipse cx="296.84" cy="390.93" rx="7.83" ry="1.65" style="fill:#253858"/><ellipse cx="296.84" cy="390.88" rx="7.83" ry="1.65" style="fill:#253858"/><ellipse cx="296.84" cy="390.84" rx="7.83" ry="1.65" style="fill:#253858"/><ellipse cx="296.84" cy="390.79" rx="7.83" ry="1.65" style="fill:#253858"/><ellipse cx="296.84" cy="390.75" rx="7.83" ry="1.65" style="fill:#253858"/><ellipse cx="296.84" cy="390.7" rx="7.83" ry="1.65" style="fill:#253858"/><ellipse cx="296.84" cy="390.66" rx="7.83" ry="1.65" style="fill:#253858"/><ellipse cx="296.84" cy="390.61" rx="7.83" ry="1.65" style="fill:#253858"/><ellipse cx="296.84" cy="390.57" rx="7.83" ry="1.65" style="fill:#253858"/><ellipse cx="296.84" cy="390.52" rx="7.83" ry="1.65" style="fill:#253858"/><ellipse cx="296.84" cy="390.48" rx="7.83" ry="1.65" style="fill:#253858"/><ellipse cx="296.84" cy="390.43" rx="7.83" ry="1.65" style="fill:#253858"/><ellipse cx="296.84" cy="390.39" rx="7.83" ry="1.65" style="fill:#253858"/><ellipse cx="296.84" cy="390.34" rx="7.83" ry="1.65" style="fill:#253858"/><ellipse cx="296.84" cy="390.3" rx="7.83" ry="1.65" style="fill:#253858"/><ellipse cx="296.84" cy="390.25" rx="7.83" ry="1.65" style="fill:#253858"/><ellipse cx="296.84" cy="390.21" rx="7.83" ry="1.65" style="fill:#253858"/><ellipse cx="296.84" cy="390.16" rx="7.83" ry="1.65" style="fill:#253858"/><ellipse cx="296.84" cy="390.11" rx="7.83" ry="1.65" style="fill:#253858"/><ellipse cx="296.84" cy="390.07" rx="7.83" ry="1.65" style="fill:#253858"/><ellipse cx="296.84" cy="390.02" rx="7.83" ry="1.65" style="fill:#253858"/><ellipse cx="296.84" cy="389.98" rx="7.83" ry="1.65" style="fill:#253858"/><ellipse cx="296.84" cy="389.93" rx="7.83" ry="1.65" style="fill:#253858"/><ellipse cx="296.84" cy="389.89" rx="7.83" ry="1.65" style="fill:#253858"/><ellipse cx="296.84" cy="389.84" rx="7.83" ry="1.65" style="fill:#253858"/><ellipse cx="296.84" cy="389.8" rx="7.83" ry="1.65" style="fill:#253858"/><ellipse cx="296.84" cy="389.75" rx="7.83" ry="1.65" style="fill:#253858"/><ellipse cx="296.84" cy="389.71" rx="7.83" ry="1.65" style="fill:#253858"/><ellipse cx="296.84" cy="389.66" rx="7.83" ry="1.65" style="fill:#253858"/><ellipse cx="296.84" cy="389.62" rx="7.83" ry="1.65" style="fill:#253858"/><ellipse cx="296.84" cy="389.57" rx="7.83" ry="1.65" style="fill:#253858"/><ellipse cx="296.84" cy="389.53" rx="7.83" ry="1.65" style="fill:#253858"/><ellipse cx="296.84" cy="389.48" rx="7.83" ry="1.65" style="fill:#253858"/><ellipse cx="296.84" cy="389.44" rx="7.83" ry="1.65" style="fill:#253858"/><ellipse cx="296.84" cy="389.39" rx="7.83" ry="1.65" style="fill:#253858"/><ellipse cx="296.84" cy="389.35" rx="7.83" ry="1.65" style="fill:#253858"/><ellipse cx="296.84" cy="389.3" rx="7.83" ry="1.65" style="fill:#253858"/><ellipse cx="296.84" cy="389.25" rx="7.83" ry="1.65" style="fill:#253858"/><ellipse cx="296.84" cy="389.21" rx="7.83" ry="1.65" style="fill:#253858"/><ellipse cx="296.84" cy="389.16" rx="7.83" ry="1.65" style="fill:#253858"/><ellipse cx="296.84" cy="389.12" rx="7.83" ry="1.65" style="fill:#253858"/><ellipse cx="296.84" cy="389.07" rx="7.83" ry="1.65" style="fill:#253858"/><ellipse cx="296.84" cy="389.03" rx="7.83" ry="1.65" style="fill:#253858"/><ellipse cx="296.84" cy="388.98" rx="7.83" ry="1.65" style="fill:#253858"/><ellipse cx="296.84" cy="388.94" rx="7.83" ry="1.65" style="fill:#253858"/><ellipse cx="296.84" cy="388.89" rx="7.83" ry="1.65" style="fill:#253858"/><ellipse cx="296.84" cy="388.85" rx="7.83" ry="1.65" style="fill:#253858"/><ellipse cx="296.84" cy="388.8" rx="7.83" ry="1.65" style="fill:#253858"/><ellipse cx="296.84" cy="388.76" rx="7.83" ry="1.65" style="fill:#253858"/><ellipse cx="296.84" cy="388.71" rx="7.83" ry="1.65" style="fill:#253858"/><ellipse cx="296.84" cy="388.67" rx="7.83" ry="1.65" style="fill:#253858"/><ellipse cx="296.84" cy="388.62" rx="7.83" ry="1.65" style="fill:#253858"/><ellipse cx="296.84" cy="388.58" rx="7.83" ry="1.65" style="fill:#253858"/><ellipse cx="296.84" cy="388.53" rx="7.83" ry="1.65" style="fill:#253858"/><ellipse cx="296.84" cy="388.49" rx="7.83" ry="1.65" style="fill:#253858"/><ellipse cx="296.84" cy="388.44" rx="7.83" ry="1.65" style="fill:#253858"/><ellipse cx="296.84" cy="388.4" rx="7.83" ry="1.65" style="fill:#253858"/><ellipse cx="296.84" cy="388.35" rx="7.83" ry="1.65" style="fill:#253858"/><ellipse cx="296.84" cy="388.3" rx="7.83" ry="1.65" style="fill:#253858"/><ellipse cx="296.84" cy="388.26" rx="7.83" ry="1.65" style="fill:#253858"/><ellipse cx="296.84" cy="388.21" rx="7.83" ry="1.65" style="fill:#253858"/><ellipse cx="296.84" cy="388.17" rx="7.83" ry="1.65" style="fill:#253858"/><ellipse cx="296.84" cy="388.12" rx="7.83" ry="1.65" style="fill:#253858"/><ellipse cx="296.84" cy="388.08" rx="7.83" ry="1.65" style="fill:#253858"/><ellipse cx="296.84" cy="388.03" rx="7.83" ry="1.65" style="fill:#253858"/><ellipse cx="296.84" cy="387.99" rx="7.83" ry="1.65" style="fill:#253858"/><ellipse cx="296.84" cy="387.94" rx="7.83" ry="1.65" style="fill:#253858"/><ellipse cx="296.84" cy="387.9" rx="7.83" ry="1.65" style="fill:#253858"/><ellipse cx="296.84" cy="387.85" rx="7.83" ry="1.65" style="fill:#253858"/><ellipse cx="296.84" cy="387.81" rx="7.83" ry="1.65" style="fill:#253858"/><ellipse cx="296.84" cy="387.76" rx="7.83" ry="1.65" style="fill:#253858"/><ellipse cx="296.84" cy="387.72" rx="7.83" ry="1.65" style="fill:#253858"/><ellipse cx="296.84" cy="387.67" rx="7.83" ry="1.65" style="fill:#253858"/><ellipse cx="296.84" cy="387.63" rx="7.83" ry="1.65" style="fill:#253858"/><ellipse cx="296.84" cy="387.58" rx="7.83" ry="1.65" style="fill:#253858"/><ellipse cx="296.84" cy="387.54" rx="7.83" ry="1.65" style="fill:#253858"/><ellipse cx="296.84" cy="387.49" rx="7.83" ry="1.65" style="fill:#253858"/><ellipse cx="296.84" cy="387.45" rx="7.83" ry="1.65" style="fill:#253858"/><ellipse cx="296.84" cy="387.4" rx="7.83" ry="1.65" style="fill:#253858"/><ellipse cx="296.84" cy="387.35" rx="7.83" ry="1.65" style="fill:#253858"/><ellipse cx="296.84" cy="387.31" rx="7.83" ry="1.65" style="fill:#253858"/><ellipse cx="296.84" cy="387.26" rx="7.83" ry="1.65" style="fill:#253858"/><ellipse cx="296.84" cy="387.22" rx="7.83" ry="1.65" style="fill:#253858"/><ellipse cx="296.84" cy="387.17" rx="7.83" ry="1.65" style="fill:#253858"/><ellipse cx="296.84" cy="387.13" rx="7.83" ry="1.65" style="fill:#253858"/><ellipse cx="296.84" cy="387.08" rx="7.83" ry="1.65" style="fill:#253858"/><ellipse cx="296.84" cy="387.04" rx="7.83" ry="1.65" style="fill:#253858"/><ellipse cx="296.84" cy="386.99" rx="7.83" ry="1.65" style="fill:#253858"/><ellipse cx="296.84" cy="386.95" rx="7.83" ry="1.65" style="fill:#253858"/><ellipse cx="296.84" cy="386.9" rx="7.83" ry="1.65" style="fill:#253858"/><ellipse cx="296.84" cy="386.86" rx="7.83" ry="1.65" style="fill:#253858"/><ellipse cx="296.84" cy="386.81" rx="7.83" ry="1.65" style="fill:#253858"/><ellipse cx="296.84" cy="386.77" rx="7.83" ry="1.65" style="fill:#253858"/><ellipse cx="296.84" cy="386.72" rx="7.83" ry="1.65" style="fill:#253858"/><ellipse cx="296.84" cy="386.68" rx="7.83" ry="1.65" style="fill:#253858"/><ellipse cx="296.84" cy="386.63" rx="7.83" ry="1.65" style="fill:#253858"/><ellipse cx="296.84" cy="386.59" rx="7.83" ry="1.65" style="fill:#253858"/><ellipse cx="296.84" cy="386.54" rx="7.83" ry="1.65" style="fill:#253858"/><ellipse cx="296.84" cy="386.49" rx="7.83" ry="1.65" style="fill:#253858"/><ellipse cx="296.84" cy="386.45" rx="7.83" ry="1.65" style="fill:#253858"/><ellipse cx="296.84" cy="386.4" rx="7.83" ry="1.65" style="fill:#253858"/><ellipse cx="296.84" cy="386.36" rx="7.83" ry="1.65" style="fill:#253858"/><ellipse cx="296.84" cy="386.31" rx="7.83" ry="1.65" style="fill:#253858"/><ellipse cx="296.84" cy="386.27" rx="7.83" ry="1.65" style="fill:#253858"/><ellipse cx="296.84" cy="386.22" rx="7.83" ry="1.65" style="fill:#253858"/><ellipse cx="296.84" cy="386.18" rx="7.83" ry="1.65" style="fill:#253858"/><ellipse cx="296.84" cy="386.13" rx="7.83" ry="1.65" style="fill:#253858"/><ellipse cx="296.84" cy="386.09" rx="7.83" ry="1.65" style="fill:#253858"/><ellipse cx="296.84" cy="386.04" rx="7.83" ry="1.65" style="fill:#253858"/><ellipse cx="296.84" cy="386" rx="7.83" ry="1.65" style="fill:#253858"/><ellipse cx="296.84" cy="385.95" rx="7.83" ry="1.65" style="fill:#253858"/><ellipse cx="296.84" cy="385.91" rx="7.83" ry="1.65" style="fill:#253858"/><ellipse cx="296.84" cy="385.86" rx="7.83" ry="1.65" style="fill:#253858"/><ellipse cx="296.84" cy="385.82" rx="7.83" ry="1.65" style="fill:#253858"/><ellipse cx="296.84" cy="385.77" rx="7.83" ry="1.65" style="fill:#253858"/><ellipse cx="296.84" cy="385.73" rx="7.83" ry="1.65" style="fill:#253858"/><ellipse cx="296.84" cy="385.68" rx="7.83" ry="1.65" style="fill:#253858"/><ellipse cx="296.84" cy="385.64" rx="7.83" ry="1.65" style="fill:#253858"/><ellipse cx="296.84" cy="385.59" rx="7.83" ry="1.65" style="fill:#253858"/><ellipse cx="296.84" cy="385.54" rx="7.83" ry="1.65" style="fill:#253858"/><ellipse cx="296.84" cy="385.5" rx="7.83" ry="1.65" style="fill:#253858"/><ellipse cx="296.84" cy="385.45" rx="7.83" ry="1.65" style="fill:#253858"/><ellipse cx="296.84" cy="385.41" rx="7.83" ry="1.65" style="fill:#253858"/><ellipse cx="296.84" cy="385.36" rx="7.83" ry="1.65" style="fill:#253858"/><ellipse cx="296.84" cy="385.32" rx="7.83" ry="1.65" style="fill:#253858"/><ellipse cx="296.84" cy="385.27" rx="7.83" ry="1.65" style="fill:#253858"/><ellipse cx="296.84" cy="385.23" rx="7.83" ry="1.65" style="fill:#253858"/><ellipse cx="296.84" cy="385.18" rx="7.83" ry="1.65" style="fill:#253858"/><ellipse cx="296.84" cy="385.14" rx="7.83" ry="1.65" style="fill:#253858"/><ellipse cx="296.84" cy="385.09" rx="7.83" ry="1.65" style="fill:#253858"/><ellipse cx="296.84" cy="385.05" rx="7.83" ry="1.65" style="fill:#253858"/><ellipse cx="296.84" cy="385" rx="7.83" ry="1.65" style="fill:#253858"/><ellipse cx="296.84" cy="384.96" rx="7.83" ry="1.65" style="fill:#253858"/><ellipse cx="296.84" cy="384.91" rx="7.83" ry="1.65" style="fill:#253858"/><ellipse cx="296.84" cy="384.87" rx="7.83" ry="1.65" style="fill:#253858"/><ellipse cx="296.84" cy="384.82" rx="7.83" ry="1.65" style="fill:#253858"/><ellipse cx="296.84" cy="384.78" rx="7.83" ry="1.65" style="fill:#253858"/><ellipse cx="296.84" cy="384.73" rx="7.83" ry="1.65" style="fill:#253858"/><ellipse cx="296.84" cy="384.68" rx="7.83" ry="1.65" style="fill:#253858"/><ellipse cx="296.84" cy="384.64" rx="7.83" ry="1.65" style="fill:#253858"/><ellipse cx="296.84" cy="384.59" rx="7.83" ry="1.65" style="fill:#253858"/><ellipse cx="296.84" cy="384.55" rx="7.83" ry="1.65" style="fill:#253858"/><ellipse cx="296.84" cy="384.5" rx="7.83" ry="1.65" style="fill:#253858"/><ellipse cx="296.84" cy="384.46" rx="7.83" ry="1.65" style="fill:#253858"/><ellipse cx="296.84" cy="384.41" rx="7.83" ry="1.65" style="fill:#253858"/><ellipse cx="296.84" cy="384.37" rx="7.83" ry="1.65" style="fill:#253858"/><ellipse cx="296.84" cy="384.32" rx="7.83" ry="1.65" style="fill:#253858"/><ellipse cx="296.84" cy="384.28" rx="7.83" ry="1.65" style="fill:#253858"/><ellipse cx="296.84" cy="384.23" rx="7.83" ry="1.65" style="fill:#253858"/><ellipse cx="296.84" cy="384.19" rx="7.83" ry="1.65" style="fill:#253858"/><ellipse cx="296.84" cy="384.14" rx="7.83" ry="1.65" style="fill:#253858"/><ellipse cx="296.84" cy="384.1" rx="7.83" ry="1.65" style="fill:#253858"/><ellipse cx="296.84" cy="384.05" rx="7.83" ry="1.65" style="fill:#253858"/><ellipse cx="296.84" cy="384.01" rx="7.83" ry="1.65" style="fill:#253858"/><ellipse cx="296.84" cy="383.96" rx="7.83" ry="1.65" style="fill:#253858"/><ellipse cx="296.84" cy="383.92" rx="7.83" ry="1.65" style="fill:#253858"/><ellipse cx="296.84" cy="383.87" rx="7.83" ry="1.65" style="fill:#253858"/><ellipse cx="296.84" cy="383.83" rx="7.83" ry="1.65" style="fill:#253858"/><ellipse cx="296.84" cy="383.78" rx="7.83" ry="1.65" style="fill:#253858"/><ellipse cx="296.84" cy="383.73" rx="7.83" ry="1.65" style="fill:#253858"/><ellipse cx="296.84" cy="383.69" rx="7.83" ry="1.65" style="fill:#253858"/><ellipse cx="296.84" cy="383.64" rx="7.83" ry="1.65" style="fill:#253858"/><ellipse cx="296.84" cy="383.6" rx="7.83" ry="1.65" style="fill:#253858"/><ellipse cx="296.84" cy="383.55" rx="7.83" ry="1.65" style="fill:#253858"/><ellipse cx="296.84" cy="383.51" rx="7.83" ry="1.65" style="fill:#253858"/><ellipse cx="296.84" cy="383.46" rx="7.83" ry="1.65" style="fill:#253858"/><ellipse cx="296.84" cy="383.42" rx="7.83" ry="1.65" style="fill:#253858"/><ellipse cx="296.84" cy="383.37" rx="7.83" ry="1.65" style="fill:#253858"/><ellipse cx="296.84" cy="383.33" rx="7.83" ry="1.65" style="fill:#253858"/><ellipse cx="296.84" cy="383.28" rx="7.83" ry="1.65" style="fill:#253858"/><ellipse cx="296.84" cy="383.24" rx="7.83" ry="1.65" style="fill:#253858"/><ellipse cx="296.84" cy="383.19" rx="7.83" ry="1.65" style="fill:#253858"/><ellipse cx="296.84" cy="383.15" rx="7.83" ry="1.65" style="fill:#253858"/><ellipse cx="296.84" cy="383.1" rx="7.83" ry="1.65" style="fill:#253858"/><ellipse cx="296.84" cy="383.06" rx="7.83" ry="1.65" style="fill:#253858"/><ellipse cx="296.84" cy="383.01" rx="7.83" ry="1.65" style="fill:#253858"/><ellipse cx="296.84" cy="382.97" rx="7.83" ry="1.65" style="fill:#253858"/><ellipse cx="296.84" cy="382.92" rx="7.83" ry="1.65" style="fill:#253858"/><ellipse cx="296.84" cy="382.87" rx="7.83" ry="1.65" style="fill:#253858"/><ellipse cx="296.84" cy="382.83" rx="7.83" ry="1.65" style="fill:#253858"/><ellipse cx="296.84" cy="382.78" rx="7.83" ry="1.65" style="fill:#253858"/><ellipse cx="296.84" cy="382.74" rx="7.83" ry="1.65" style="fill:#253858"/><ellipse cx="296.84" cy="382.69" rx="7.83" ry="1.65" style="fill:#253858"/><ellipse cx="296.84" cy="382.65" rx="7.83" ry="1.65" style="fill:#253858"/><ellipse cx="296.84" cy="382.6" rx="7.83" ry="1.65" style="fill:#253858"/><ellipse cx="296.84" cy="382.56" rx="7.83" ry="1.65" style="fill:#253858"/><ellipse cx="296.84" cy="382.51" rx="7.83" ry="1.65" style="fill:#253858"/><ellipse cx="296.84" cy="382.47" rx="7.83" ry="1.65" style="fill:#253858"/><ellipse cx="296.84" cy="382.42" rx="7.83" ry="1.65" style="fill:#253858"/><ellipse cx="296.84" cy="382.38" rx="7.83" ry="1.65" style="fill:#253858"/><ellipse cx="296.84" cy="382.33" rx="7.83" ry="1.65" style="fill:#253858"/><ellipse cx="296.84" cy="382.29" rx="7.83" ry="1.65" style="fill:#253858"/><ellipse cx="296.84" cy="382.24" rx="7.83" ry="1.65" style="fill:#253858"/><ellipse cx="296.84" cy="382.2" rx="7.83" ry="1.65" style="fill:#253858"/><ellipse cx="296.84" cy="382.15" rx="7.83" ry="1.65" style="fill:#253858"/><ellipse cx="296.84" cy="382.11" rx="7.83" ry="1.65" style="fill:#253858"/><ellipse cx="296.84" cy="382.06" rx="7.83" ry="1.65" style="fill:#253858"/><ellipse cx="296.84" cy="382.02" rx="7.83" ry="1.65" style="fill:#253858"/><ellipse cx="296.84" cy="381.97" rx="7.83" ry="1.65" style="fill:#253858"/><ellipse cx="296.84" cy="381.92" rx="7.83" ry="1.65" style="fill:#253858"/><ellipse cx="296.84" cy="381.88" rx="7.83" ry="1.65" style="fill:#253858"/><ellipse cx="296.84" cy="381.83" rx="7.83" ry="1.65" style="fill:#253858"/><ellipse cx="296.84" cy="381.79" rx="7.83" ry="1.65" style="fill:#253858"/><ellipse cx="296.84" cy="381.74" rx="7.83" ry="1.65" style="fill:#253858"/><ellipse cx="296.84" cy="381.7" rx="7.83" ry="1.65" style="fill:#253858"/><ellipse cx="296.84" cy="381.65" rx="7.83" ry="1.65" style="fill:#253858"/><ellipse cx="296.84" cy="381.61" rx="7.83" ry="1.65" style="fill:#253858"/><ellipse cx="296.84" cy="381.56" rx="7.83" ry="1.65" style="fill:#253858"/><ellipse cx="296.84" cy="381.52" rx="7.83" ry="1.65" style="fill:#253858"/><ellipse cx="296.84" cy="381.47" rx="7.83" ry="1.65" style="fill:#253858"/><ellipse cx="296.84" cy="381.43" rx="7.83" ry="1.65" style="fill:#253858"/><ellipse cx="296.84" cy="381.38" rx="7.83" ry="1.65" style="fill:#253858"/><ellipse cx="296.84" cy="381.34" rx="7.83" ry="1.65" style="fill:#253858"/><ellipse cx="296.84" cy="381.29" rx="7.83" ry="1.65" style="fill:#253858"/><ellipse cx="296.84" cy="381.25" rx="7.83" ry="1.65" style="fill:#253858"/><ellipse cx="296.84" cy="381.2" rx="7.83" ry="1.65" style="fill:#253858"/><ellipse cx="296.84" cy="381.16" rx="7.83" ry="1.65" style="fill:#253858"/><ellipse cx="296.84" cy="381.11" rx="7.83" ry="1.65" style="fill:#253858"/><ellipse cx="296.84" cy="381.07" rx="7.83" ry="1.65" style="fill:#253858"/><ellipse cx="296.84" cy="381.02" rx="7.83" ry="1.65" style="fill:#253858"/><ellipse cx="296.84" cy="380.97" rx="7.83" ry="1.65" style="fill:#253858"/><ellipse cx="296.84" cy="380.93" rx="7.83" ry="1.65" style="fill:#253858"/><ellipse cx="296.84" cy="380.88" rx="7.83" ry="1.65" style="fill:#253858"/><ellipse cx="296.84" cy="380.84" rx="7.83" ry="1.65" style="fill:#253858"/><ellipse cx="296.84" cy="380.79" rx="7.83" ry="1.65" style="fill:#253858"/><ellipse cx="296.84" cy="380.75" rx="7.83" ry="1.65" style="fill:#253858"/><ellipse cx="296.84" cy="380.7" rx="7.83" ry="1.65" style="fill:#253858"/><ellipse cx="296.84" cy="380.66" rx="7.83" ry="1.65" style="fill:#253858"/><ellipse cx="296.84" cy="380.61" rx="7.83" ry="1.65" style="fill:#253858"/><ellipse cx="296.84" cy="380.57" rx="7.83" ry="1.65" style="fill:#253858"/><ellipse cx="296.84" cy="380.52" rx="7.83" ry="1.65" style="fill:#253858"/><ellipse cx="296.84" cy="380.48" rx="7.83" ry="1.65" style="fill:#253858"/><ellipse cx="296.84" cy="380.43" rx="7.83" ry="1.65" style="fill:#253858"/><ellipse cx="296.84" cy="380.39" rx="7.83" ry="1.65" style="fill:#253858"/><ellipse cx="296.84" cy="380.34" rx="7.83" ry="1.65" style="fill:#253858"/><ellipse cx="296.84" cy="380.3" rx="7.83" ry="1.65" style="fill:#253858"/><ellipse cx="296.84" cy="380.25" rx="7.83" ry="1.65" style="fill:#253858"/><ellipse cx="296.84" cy="380.21" rx="7.83" ry="1.65" style="fill:#253858"/><ellipse cx="296.84" cy="380.16" rx="7.83" ry="1.65" style="fill:#253858"/><ellipse cx="296.84" cy="380.11" rx="7.83" ry="1.65" style="fill:#253858"/><ellipse cx="296.84" cy="380.07" rx="7.83" ry="1.65" style="fill:#253858"/><ellipse cx="296.84" cy="380.02" rx="7.83" ry="1.65" style="fill:#253858"/><ellipse cx="296.84" cy="379.98" rx="7.83" ry="1.65" style="fill:#253858"/><ellipse cx="296.84" cy="379.93" rx="7.83" ry="1.65" style="fill:#253858"/><ellipse cx="296.84" cy="379.89" rx="7.83" ry="1.65" style="fill:#253858"/><ellipse cx="296.84" cy="379.84" rx="7.83" ry="1.65" style="fill:#253858"/><ellipse cx="296.84" cy="379.8" rx="7.83" ry="1.65" style="fill:#253858"/><ellipse cx="296.84" cy="379.75" rx="7.83" ry="1.65" style="fill:#253858"/><ellipse cx="296.84" cy="379.71" rx="7.83" ry="1.65" style="fill:#253858"/><ellipse cx="296.84" cy="379.66" rx="7.83" ry="1.65" style="fill:#253858"/><ellipse cx="296.84" cy="379.62" rx="7.83" ry="1.65" style="fill:#253858"/><ellipse cx="296.84" cy="379.57" rx="7.83" ry="1.65" style="fill:#253858"/><ellipse cx="296.84" cy="379.53" rx="7.83" ry="1.65" style="fill:#253858"/><ellipse cx="296.84" cy="379.48" rx="7.83" ry="1.65" style="fill:#253858"/><ellipse cx="296.84" cy="379.44" rx="7.83" ry="1.65" style="fill:#253858"/><ellipse cx="296.84" cy="379.39" rx="7.83" ry="1.65" style="fill:#253858"/><ellipse cx="296.84" cy="379.35" rx="7.83" ry="1.65" style="fill:#253858"/><ellipse cx="296.84" cy="379.3" rx="7.83" ry="1.65" style="fill:#253858"/><ellipse cx="296.84" cy="379.26" rx="7.83" ry="1.65" style="fill:#253858"/><ellipse cx="296.84" cy="379.21" rx="7.83" ry="1.65" style="fill:#253858"/><ellipse cx="296.84" cy="379.16" rx="7.83" ry="1.65" style="fill:#253858"/><ellipse cx="296.84" cy="379.12" rx="7.83" ry="1.65" style="fill:#253858"/><ellipse cx="296.84" cy="379.07" rx="7.83" ry="1.65" style="fill:#253858"/><ellipse cx="296.84" cy="379.03" rx="7.83" ry="1.65" style="fill:#253858"/><ellipse cx="296.84" cy="378.98" rx="7.83" ry="1.65" style="fill:#253858"/><ellipse cx="296.84" cy="378.94" rx="7.83" ry="1.65" style="fill:#253858"/><ellipse cx="296.84" cy="378.89" rx="7.83" ry="1.65" style="fill:#253858"/><ellipse cx="296.84" cy="378.85" rx="7.83" ry="1.65" style="fill:#253858"/><ellipse cx="296.84" cy="378.8" rx="7.83" ry="1.65" style="fill:#253858"/><ellipse cx="296.84" cy="378.76" rx="7.83" ry="1.65" style="fill:#253858"/><ellipse cx="296.84" cy="378.71" rx="7.83" ry="1.65" style="fill:#253858"/><ellipse cx="296.84" cy="378.67" rx="7.83" ry="1.65" style="fill:#253858"/><ellipse cx="296.84" cy="378.62" rx="7.83" ry="1.65" style="fill:#253858"/><ellipse cx="296.84" cy="378.58" rx="7.83" ry="1.65" style="fill:#253858"/><ellipse cx="296.84" cy="378.53" rx="7.83" ry="1.65" style="fill:#253858"/><ellipse cx="296.84" cy="378.49" rx="7.83" ry="1.65" style="fill:#253858"/><ellipse cx="296.84" cy="378.44" rx="7.83" ry="1.65" style="fill:#253858"/><ellipse cx="296.84" cy="378.4" rx="7.83" ry="1.65" style="fill:#253858"/><ellipse cx="296.84" cy="378.35" rx="7.83" ry="1.65" style="fill:#253858"/><ellipse cx="296.84" cy="378.3" rx="7.83" ry="1.65" style="fill:#253858"/><ellipse cx="296.84" cy="378.26" rx="7.83" ry="1.65" style="fill:#253858"/><ellipse cx="296.84" cy="378.21" rx="7.83" ry="1.65" style="fill:#253858"/><ellipse cx="296.84" cy="378.17" rx="7.83" ry="1.65" style="fill:#253858"/><ellipse cx="296.84" cy="378.12" rx="7.83" ry="1.65" style="fill:#253858"/><ellipse cx="296.84" cy="378.08" rx="7.83" ry="1.65" style="fill:#253858"/><ellipse cx="296.84" cy="378.03" rx="7.83" ry="1.65" style="fill:#253858"/><ellipse cx="296.84" cy="377.99" rx="7.83" ry="1.65" style="fill:#253858"/><ellipse cx="296.84" cy="377.94" rx="7.83" ry="1.65" style="fill:#253858"/><ellipse cx="296.84" cy="377.9" rx="7.83" ry="1.65" style="fill:#253858"/><ellipse cx="296.84" cy="377.85" rx="7.83" ry="1.65" style="fill:#253858"/><ellipse cx="296.84" cy="377.81" rx="7.83" ry="1.65" style="fill:#253858"/><ellipse cx="296.84" cy="377.76" rx="7.83" ry="1.65" style="fill:#253858"/><ellipse cx="296.84" cy="377.72" rx="7.83" ry="1.65" style="fill:#253858"/><ellipse cx="296.84" cy="377.67" rx="7.83" ry="1.65" style="fill:#253858"/><ellipse cx="296.84" cy="377.63" rx="7.83" ry="1.65" style="fill:#253858"/><ellipse cx="296.84" cy="377.58" rx="7.83" ry="1.65" style="fill:#253858"/><ellipse cx="296.84" cy="377.54" rx="7.83" ry="1.65" style="fill:#253858"/><ellipse cx="296.84" cy="377.49" rx="7.83" ry="1.65" style="fill:#253858"/><ellipse cx="296.84" cy="377.45" rx="7.83" ry="1.65" style="fill:#253858"/><ellipse cx="296.84" cy="377.4" rx="7.83" ry="1.65" style="fill:#253858"/><ellipse cx="296.84" cy="377.35" rx="7.83" ry="1.65" style="fill:#253858"/><ellipse cx="296.84" cy="377.31" rx="7.83" ry="1.65" style="fill:#253858"/><ellipse cx="296.84" cy="377.26" rx="7.83" ry="1.65" style="fill:#253858"/><ellipse cx="296.84" cy="377.22" rx="7.83" ry="1.65" style="fill:#253858"/><ellipse cx="296.84" cy="377.17" rx="7.83" ry="1.65" style="fill:#253858"/><ellipse cx="296.84" cy="377.13" rx="7.83" ry="1.65" style="fill:#253858"/><ellipse cx="296.84" cy="377.08" rx="7.83" ry="1.65" style="fill:#253858"/><ellipse cx="296.84" cy="377.04" rx="7.83" ry="1.65" style="fill:#253858"/><ellipse cx="296.84" cy="376.99" rx="7.83" ry="1.65" style="fill:#253858"/><ellipse cx="296.84" cy="376.95" rx="7.83" ry="1.65" style="fill:#253858"/><ellipse cx="296.84" cy="376.95" rx="7.83" ry="1.65" style="fill:#253858"/><circle cx="310.59" cy="221.01" r="5.23" style="fill:#fff"/><polyline points="146.09 59.43 148.85 62.56 153.94 57.47" style="fill:none;stroke:#fff;stroke-linecap:round;stroke-linejoin:round;stroke-width:2.10014472010675px"/><polyline points="164.1 81.11 165.97 83.22 169.4 79.78" style="fill:none;stroke:#fff;stroke-linecap:round;stroke-linejoin:round;stroke-width:1.41813542863095px"/><circle cx="562.96" cy="300.63" r="6.18" style="fill:#00a3bf"/><circle cx="546.45" cy="278.79" r="9.15" style="fill:#00c7e5"/><circle cx="564.41" cy="283.88" r="4.06" style="fill:#79e2f2"/><circle cx="555.44" cy="252.14" r="6.01" style="fill:#79e2f2"/><circle cx="540.67" cy="298.51" r="4.06" style="fill:#79e2f2"/><circle cx="551.38" cy="311.78" r="4.06" style="fill:#79e2f2"/><circle cx="532.65" cy="390.42" r="4.06" style="fill:#79e2f2"/><rect x="283.02" y="81.47" width="6.56" height="6.56" rx="1.64" ry="1.64" transform="translate(97.41 -146.49) rotate(34.27)" style="fill:#0065ff"/><rect x="302.24" y="107.61" width="9.8" height="9.8" rx="2.45" ry="2.45" transform="translate(277.99 -213.28) rotate(64.77)" style="fill:#0065ff"/><rect x="297.7" y="131.39" width="6.56" height="6.56" rx="1.64" ry="1.64" transform="translate(183.38 -173.38) rotate(45)" style="fill:#0065ff"/><rect x="298.4" y="61.61" width="24.04" height="24.04" rx="5.11" ry="5.11" transform="translate(8.41 -29.2) rotate(5.46)" style="fill:#0057d8"/><path d="M307.61,78l-3.73-5.14A.64.64,0,0,1,304,72l1.56-1.13a.64.64,0,0,1,.89.14l2.21,3L316,68.65a.64.64,0,0,1,.89.13L318,70.34a.64.64,0,0,1-.13.89l-9.35,6.91A.64.64,0,0,1,307.61,78Z" style="fill:#fff"/><rect x="274.67" y="102.5" width="18.99" height="18.99" rx="4.03" ry="4.03" transform="translate(-19.41 78.31) rotate(-15.18)" style="fill:#0057d8"/><path d="M283.31,116l-4.19-2.76a.5.5,0,0,1-.14-.7l.84-1.27a.5.5,0,0,1,.7-.14l2.48,1.63,3.88-6a.5.5,0,0,1,.7-.15l1.28.83a.5.5,0,0,1,.15.7l-5,7.71A.5.5,0,0,1,283.31,116Z" style="fill:#fff"/><g style="mix-blend-mode:multiply"><path id="_Clipping_Path_25" data-name="&lt;Clipping Path&gt;" d="M570.43,416.48a2.61,2.61,0,0,0,2.6-2.6V359.22a23,23,0,0,1-11.55,3.39c-18.08.11-32.71-24-44.18-23.49-1.72.08-8.88,0-8.88,12.41,0,0,0,62.35,0,62.35a2.61,2.61,0,0,0,2.6,2.6Z" style="fill:url(#New_Gradient_Swatch_12)"/><g style="clip-path:url(#clip-path-9)"><path d="M492.92,394.83c-4-19.76,12.59-53.95,15.49-45.38,2.65,7.83,6,20.35,25.09,25.32,14.5,3.76,34.52-3.6,39.54-15.54,2.85-6.78.32-13.77,6-18.79,2.43-2.15,6.8-4.32,10.06-3.24,9.87,3.27,15.55,38.29,1.34,61.33-20.29,32.91-74.22,33.16-90.15,15.08C495.59,408.26,494.33,401.79,492.92,394.83Z" style="opacity:0.37;mix-blend-mode:screen;fill:url(#New_Gradient_Swatch_11)"/><path d="M588.46,395.57c-4.64-6.22-12.48-10.68-20.23-11-17.63-.69-22.4,20.57-37.31,20.4-17.47-.19-25.8-29.52-35.08-26.82-6.68,1.95-8.26,18.86-6.42,30.73,2.46,15.93,13.15,36.28,33.17,43.46C555,464,592.72,434.19,593.76,412.74A27.64,27.64,0,0,0,588.46,395.57Z" style="opacity:0.37;mix-blend-mode:screen;fill:url(#New_Gradient_Swatch_11-2)"/></g></g><path d="M302,370.24a5,5,0,0,1-10,0c0-2.76,5-11.86,5-11.86S302,367.48,302,370.24Z" style="fill:#ffe380"/><line x1="386.98" y1="300.71" x2="386.98" y2="475.53" style="fill:none;stroke:#b2d4ff;stroke-linecap:round;stroke-linejoin:round;stroke-width:2.38712786112669px"/><line x1="48.33" y1="335" x2="142.03" y2="335" style="fill:none;stroke:#0065ff;stroke-linecap:round;stroke-linejoin:round;stroke-width:2.55359698732051px"/><line x1="55.94" y1="335" x2="35.12" y2="424.52" style="fill:none;stroke:#0065ff;stroke-linecap:round;stroke-linejoin:round;stroke-width:2.55359698732051px"/><line x1="134.7" y1="335" x2="155.25" y2="423.31" style="fill:none;stroke:#0065ff;stroke-linecap:round;stroke-linejoin:round;stroke-width:2.55359698732051px"/><path d="M143.38,373.13a49.33,49.33,0,0,0-96.14,0" style="fill:none;stroke:#0065ff;stroke-linecap:round;stroke-linejoin:round;stroke-width:2.55359698732051px"/><path d="M205.7,257a26.46,26.46,0,0,1-52.92,0A20.84,20.84,0,0,0,163,260.63c9.47.56,13.94-6.68,23.46-8.23C190.81,251.7,197.2,252,205.7,257Z" style="mix-blend-mode:multiply;fill:url(#linear-gradient-45)"/><path d="M191.41,193.61a12.6,12.6,0,1,1-25.19,0,9.05,9.05,0,0,1,5.11-3.11c4.08-.69,6.47,2.64,12,3.6A18.25,18.25,0,0,0,191.41,193.61Z" style="mix-blend-mode:multiply;fill:url(#linear-gradient-46)"/><path d="M236.47,203.94a14,14,0,1,1,14-14A14.05,14.05,0,0,1,236.47,203.94Z" style="fill:url(#New_Gradient_Swatch_8-4)"/><path d="M250.51,189.9a14,14,0,1,1-28.08,0,10.09,10.09,0,0,1,5.69-3.47c4.55-.77,7.21,2.94,13.42,4A20.34,20.34,0,0,0,250.51,189.9Z" style="opacity:0.37;mix-blend-mode:screen;fill:url(#linear-gradient-47)"/><circle cx="431.01" cy="222.08" r="24.21" style="fill:url(#linear-gradient-48)"/><path d="M431,241.27a19.2,19.2,0,1,1,19.2-19.2A19.22,19.22,0,0,1,431,241.27Z" style="fill:url(#New_Gradient_Swatch_5-5)"/><path d="M450.21,222.08a19.2,19.2,0,1,1-38.4,0,13.8,13.8,0,0,1,7.79-4.74c6.22-1.06,9.86,4,18.35,5.48A27.81,27.81,0,0,0,450.21,222.08Z" style="opacity:0.37;mix-blend-mode:screen;fill:url(#linear-gradient-49)"/><circle cx="541.41" cy="364.95" r="2.21" style="fill:#79e2f2"/><circle cx="531.25" cy="363.89" r="4.13" style="fill:#79e2f2"/><circle cx="490.25" cy="269.64" r="2.21" style="fill:#57d9a3"/><circle cx="490.45" cy="213.02" r="2.21" style="fill:#ff8f73"/><circle cx="424.51" cy="232.15" r="3.02" style="fill:#ffc400"/><circle cx="500.65" cy="191.99" r="2.21" style="fill:#ff8f73"/><circle cx="499.49" cy="287" r="3.15" style="fill:#57d9a3"/><circle cx="566.27" cy="406.8" r="2.21" style="fill:#79e2f2"/><circle cx="518.17" cy="378.25" r="2.21" style="fill:#79e2f2"/><circle cx="518.17" cy="355.33" r="2.21" style="fill:#00a3bf"/><circle cx="436.63" cy="214.86" r="5.55" style="fill:#ffe380"/><path d="M184.84,412l1.56.84a13,13,0,0,0,5,1.51q1.44.18,1.53-.1t-.44-.56c.42.14.8.11.89,0s-.13-.57-.64-.86c.09,0,.2-.12.21-.21,0-.3-.88-.6-1.24-.73-.89-.31-2.14-.77-4-1.54l-2-.18Z" style="fill:url(#linear-gradient-50)"/><path d="M171.5,405.9l15.35,2.53-2,3.57a33.56,33.56,0,0,0-4.06-.57c-3.38-.27-4.58.15-7.4-.17s-4-.46-5.24-1.3c0,0-1.62-1.14-4.14-8.69h0l5.58-2.23C170.07,400.79,170.8,405.25,171.5,405.9Z" style="fill:#b5917c"/><path d="M165,405.86c-.38-.22-.7-.6-1.26-2.6a31.37,31.37,0,0,1-1-5.59l4.93-9.93a39.53,39.53,0,0,1,1.45,4.41s.64,2.41,1.42,7.46h0c.29,2.25.34,2.52.17,3.06C169.89,405,166.59,406.77,165,405.86Z" style="fill:#dfe1e5"/><path d="M170.67,402.67c.18-.54.12-.81-.17-3.06,0,0-.06-.48-.15-1.24a10,10,0,0,1-.52.92,8.43,8.43,0,0,1-6.17,3.7l.07.27c.56,2,.88,2.38,1.26,2.6C166.59,406.77,169.89,405,170.67,402.67Z" style="fill:#c1c7d0"/><path d="M186.35,408.21l.85.08a5.31,5.31,0,0,1,2.1.66l2.79,1.58h0a1.2,1.2,0,0,1-1.54.57l-1.16-.48-2,.19a2.66,2.66,0,0,1-2.72-1.67h0A1.7,1.7,0,0,1,186.35,408.21Z" style="fill:url(#linear-gradient-51)"/><rect x="185.1" y="412" width="5.28" height="55.96" style="fill:#4c9aff"/><path d="M187.65,406.53h.2a2.54,2.54,0,0,1,2.54,2.54V412a0,0,0,0,1,0,0H185.1a0,0,0,0,1,0,0v-2.92a2.54,2.54,0,0,1,2.54-2.54Z" style="fill:#4c9aff"/><line x1="171.8" y1="412.37" x2="203.02" y2="412.37" style="fill:none;stroke:#b2d4ff;stroke-miterlimit:10;stroke-width:3px"/><path id="_Clipping_Path_26" data-name="&lt;Clipping Path&gt;" d="M158.63,478.81l-10.42,0,0-6.62,3.39.87a4.43,4.43,0,0,0,1.83,2.78c1.53,1,3.21.22,4.39,1.4A3,3,0,0,1,158.63,478.81Z" style="fill:#172b4d"/><g style="clip-path:url(#clip-path-12)"><rect x="147.8" y="478.08" width="10.83" height="0.71" transform="translate(1.93 -0.62) rotate(0.23)" style="fill:#8993a4"/></g><path d="M162.68,385.36a4,4,0,1,1-8,.13,21,21,0,0,0,0-6.24l8,1.52c-1.13,1.9-1.38,3.63-.67,4.29A1.2,1.2,0,0,0,162.68,385.36Z" style="fill:#9c7761"/><path d="M154.87,379.4l-1.34-1.2a3.3,3.3,0,0,1-1.07-2.06l-.08-.63a21.18,21.18,0,0,1-.06-4.62,2.66,2.66,0,0,1,1.55-2.19l.23-.1a13.22,13.22,0,0,1,5.33-1.13H163a1.69,1.69,0,0,1,1.81-.58c.79.34.84,1.55.59,2.3a2.4,2.4,0,0,1-1.23,1.32l-3.53,6.38Z" style="fill:#172b4d"/><path d="M163.52,370.31c.18.68.34,1.42.46,2.23a23,23,0,0,1,.27,3c.06.16.18.45.35.79.52,1,1.09,1.68.9,1.9,0,0-.74.25-.87.34s-.31,2.5-.87,3.39c-1.14,1.81-7,1.7-8.59-1.3a4.14,4.14,0,0,1-.43-2.36,2.35,2.35,0,0,0,.32-.1,2.66,2.66,0,0,0,1.33-1.15c.55-1-.14-2,.38-2.34a.8.8,0,0,1,.79,0c.69.37.67,2,.67,2h0l1.1-.17c.23-2.78,1-3.76,1.68-4.1a5.51,5.51,0,0,0,1.38-.8A4.86,4.86,0,0,0,163.52,370.31Z" style="fill:#b5917c"/><path id="_Clipping_Path_27" data-name="&lt;Clipping Path&gt;" d="M175.38,476H164.87v-6.68l3.42.86a4.47,4.47,0,0,0,1.85,2.8c1.55,1,3.24.21,4.43,1.4A3,3,0,0,1,175.38,476Z" style="fill:#172b4d"/><g style="clip-path:url(#clip-path-13)"><rect x="164.66" y="475.3" width="10.92" height="0.72" style="fill:#8993a4"/></g><circle cx="167.05" cy="472.85" r="0.79" style="fill:#8993a4"/><path d="M155.75,413.11l6.12,26.73,2.93,30.71a3.93,3.93,0,0,0,4.71-.7c0-9.8-.06-20.25-1.18-31.18l-2.8-27.35Z" style="fill:url(#linear-gradient-52)"/><path d="M148.93,413.22c-.32,5.09-.46,10.59-.31,16.44.1,3.75.31,7.35.6,10.77q-.41,4.15-.7,8.49c-.56,8.6-.64,16.77-.39,24.42a15.94,15.94,0,0,0,4.76.14c1.5-10.51,3-21.46,3.9-32.88l2.08-27.41Z" style="fill:url(#linear-gradient-53)"/><path id="_Clipping_Path_28" data-name="&lt;Clipping Path&gt;" d="M164.63,385.89c-.93-.29-1.71-.52-2.29-.67v0a5.37,5.37,0,0,1-3.93,1.43,6,6,0,0,1-3.63-1.57,17.79,17.79,0,0,0-5.89.7,3,3,0,0,0-.83.33c-2.27,1.5-.66,7.37-.2,8.94.57,8.29.62,11.54.5,12.69a5.29,5.29,0,0,0,.09,2.42,8.3,8.3,0,0,1,.51,1.66,4.74,4.74,0,0,1,0,1.36h17a1.63,1.63,0,0,1,0-.88,1.62,1.62,0,0,1,.48-.73c1.37-1.26,1.43-6.06,1.43-6.06,0-3.73-.34-12.63-.11-15.95a3.44,3.44,0,0,0-.61-2.6C166.86,386.71,166.5,386.48,164.63,385.89Z" style="fill:#57d9a3"/><path d="M144,434.11h11.36l-.68-49.32c-1,.11-2.32.29-4,.61-3.43.67-4.1,1.17-4.38,1.42-1.51,1.32-1.52,3.58-1.53,4.54C144.58,407.87,144.31,417.6,144,434.11Z" style="fill:url(#linear-gradient-54)"/><path d="M162.34,434.11h5.5V388.78a2.71,2.71,0,0,0-2-2.62l-3.49-.95Z" style="fill:#dfe1e5"/><path d="M169.4,410.77l-1.78,2.59a69.08,69.08,0,0,0-6.15-3.44,69.1,69.1,0,0,1-7.77-4l0,0a3.12,3.12,0,0,1-.69-4.64l1.29-1.53Z" style="fill:#b5917c"/><path d="M166.54,412.62l1.68,1.25a5.71,5.71,0,0,0,3.51,1.67c.47,0,1.6.18,1.91-.36a.71.71,0,0,0,.07-.45,1.16,1.16,0,0,0,.94-1.09.78.78,0,0,0-.26-.48c.67-.32,1.06-.82,1-1.21a.56.56,0,0,0-.35-.43c-.21-.05-.36.14-.72.33a2.68,2.68,0,0,1-.76.26l-1.36-1a1.6,1.6,0,0,0,.58.25,1.36,1.36,0,0,0,.73,0,1.31,1.31,0,0,0,.62-.44c-1.23-.5-2.19-.9-2.81-1.17a4.27,4.27,0,0,0-2-.57,3,3,0,0,0-1.78.7A3.29,3.29,0,0,0,166.54,412.62Z" style="fill:#b5917c"/><path d="M146.5,422.65h0a3.22,3.22,0,0,1,3.22,3.22v3.73a0,0,0,0,1,0,0h-6.44a0,0,0,0,1,0,0v-3.73A3.22,3.22,0,0,1,146.5,422.65Z" transform="translate(293.01 852.25) rotate(180)" style="fill:#dfe1e5"/><path d="M157.49,401.84l-.56-1.23c-1.14-2.48-1.81-3.88-2.05-4.39-2.12-4.57-1-6.21-2.92-8-1.31-1.2-3.68-2.11-5.37-1.11a4.08,4.08,0,0,0-1.72,2.68,7.82,7.82,0,0,0,.91,4l.34.74c.46,1,.77,1.59,1.07,2.21.88,1.78,1.58,3.31,2.91,5.92.78,1.53.93,1.77,1.3,2,1.76.91,4.57-1.33,4.82-1.53A8.12,8.12,0,0,0,157.49,401.84Z" style="fill:url(#linear-gradient-55)"/><path d="M152.87,401.34a8.25,8.25,0,0,1-3,.84l.46.89c.79,1.52.94,1.76,1.29,2,1.65,1,4-1,4.31-1.23a6.81,6.81,0,0,0,1.65-2.09c-.42-.88-.93-1.94-1.52-3.15A8.33,8.33,0,0,1,152.87,401.34Z" style="fill:#c1c7d0"/><circle cx="150.16" cy="475.47" r="0.78" transform="translate(-325.91 623.7) rotate(-89.77)" style="fill:#8993a4"/><path d="M458.71,367c-.64,3.51-1.45,7.18-2.47,11a142.94,142.94,0,0,1-10,26.52,37.46,37.46,0,0,0,8.18,1.13A38.07,38.07,0,0,0,469.26,403V370.69Z" style="fill:#c1c7d0"/><path d="M475.26,426.59l-.28,1.64a3.42,3.42,0,0,1-1,1.86h0a3.42,3.42,0,0,1-1.09.72l-2.73,1.13v.92h6.63l.65-.65.74.74h1.65v-1.09a14,14,0,0,0-.3-2.88l-.07-.33-.64-3.32Z" style="fill:#253858"/><path d="M457.45,427.88l-1,1.61a3.86,3.86,0,0,1-1.77,1.57h0a3.86,3.86,0,0,1-1.43.32l-3.33.1-.37,1,7,2.66.94-.42.48,1.08,1.74.66.44-1.15a15.79,15.79,0,0,0,.84-3.15l.06-.38.65-3.75Z" style="fill:#253858"/><path d="M478.4,380.29c.13.27.28.58.44.92a24,24,0,0,1,1.18,3.25,27.69,27.69,0,0,1,.78,4.28c.28,2.8-.16,7.27-1.84,16a77.31,77.31,0,0,1,1.39,11.91,49.16,49.16,0,0,1-.71,10.68l-5.41-.18a62.49,62.49,0,0,0-.77-11.21,105.09,105.09,0,0,0-2-10.8s-2.82-15.89,1-21.17C473.13,383,474.55,381.2,478.4,380.29Z" style="fill:url(#New_Gradient_Swatch_5-6)"/><path d="M476.26,385.1c0,.3.07.64.11,1a24,24,0,0,1,0,3.46,27.69,27.69,0,0,1-.69,4.3c-.67,2.74-2.57,6.81-7.06,14.47A77.31,77.31,0,0,1,466,420a49.16,49.16,0,0,1-4.22,9.84l-5-2a62.49,62.49,0,0,0,3-10.83,105.09,105.09,0,0,0,1.71-10.85s2.62-15.92,7.95-19.64C470.4,385.87,472.33,384.67,476.26,385.1Z" style="fill:url(#New_Gradient_Swatch_5-7)"/><path d="M437.93,345.84l-3.32-3.58a.56.56,0,0,0-.76.14c0,.3.06.61-.1.72s-.28-.06-.45,0-.28.77-.27,1a2.28,2.28,0,0,0,.11.64l-.17.74a.79.79,0,0,0,.2.73l.08,1.12c-.17.38,1.12,1.41,1.16,1.45l1.94.89a.56.56,0,0,0,1-.25l.73-3.11A.56.56,0,0,0,437.93,345.84Z" style="fill:#a27f68"/><path d="M441.63,345.5c-.6.57.8,3.38-2.62-.56a3.93,3.93,0,0,1-1.39-2.45c-.12-1.47,1.18-2,.89-3.31-.16-.73-.62-1-.56-1.79,0-.56.33-1.19.61-1.2s.38.81,1,2.23a27.9,27.9,0,0,1,1.34,2.48c.18.49.24.8.61,1.85a5.72,5.72,0,0,1,.27.8C441.9,344,442.11,345,441.63,345.5Z" style="fill:#c1c7d0"/><path d="M475.93,362.2c-.46-1.75-2.31-2.59-7.85-4.53-3.2-1.12-7.39-2.52-12.38-4l-14.27-11.28-2.24,3.47,14,13.5c3.13,1.17,5.65,2.28,7.41,3.09,7.09,3.27,10.65,4.91,11.22,5.44a1.17,1.17,0,0,0,.82.39C474.27,368.23,476.58,364.69,475.93,362.2Z" style="fill:#c1c7d0"/><path d="M468.82,353.2a3.78,3.78,0,0,0,.92-.6,3.83,3.83,0,0,0,1-1.38c.22-.59,1-2.5,2.09-3.2a4.11,4.11,0,0,1,2.51-.63,4.94,4.94,0,0,1,3.94,3.8,5.72,5.72,0,0,1-2.39,5.88,6.25,6.25,0,0,1-4.56.86,7,7,0,0,1-3.07-1.31q.12-.49.23-1c.13-.66.23-1.28.29-1.87Z" style="fill:#a27f68"/><rect x="412.34" y="301.8" width="27.84" height="59.39" rx="3.55" ry="3.55" transform="translate(-60.48 97.67) rotate(-12.21)" style="fill:url(#linear-gradient-56)"/><path d="M434.68,352.61c.66.17,1.38-.78,1.66-1.45a3,3,0,0,0,0-2.32c-.43-1-1.08-.86-2-2s-.91-2.14-1.23-2.13-.48.75-.47,1.42c0,1.25.78,1.48,1,2.81.17,1.07-.25,1.3.08,2.36C433.89,351.65,434.15,352.47,434.68,352.61Z" style="fill:#a27f68"/><path d="M435.76,348.42s-3.85-1.4-4.39-2.34-.46-1.71-.9-1.72-.3,1.6-.52,1.78-.54,0-.58.49a4,4,0,0,0,0,1.62,9.91,9.91,0,0,0,2.52,3.27c.85.49,2.55,1.59,3.58,1.45s.62-3.75.62-3.75Z" style="fill:#a27f68"/><path d="M411.25,328c5.65,3.31,8.67,3.12,10.4,2.11,3.46-2,2.22-7.47,6.06-10.41,2.8-2.15,6.78-1.79,10-1L434.33,303a3.55,3.55,0,0,0-4.22-2.72l-20.28,4.39a3.55,3.55,0,0,0-2.72,4.22Z" style="fill:#ffc400"/><path d="M471.34,356.06l-.71,4.87h5.86v-5.09Z" style="fill:#a27f68"/><path d="M478.5,362.61a9.55,9.55,0,0,0-8.74-2.86c-2.05-.12-4.82.07-8.54-.06a71.07,71.07,0,0,1-10.58-1.17l-14.08-8.82-2.66,3.19a64.29,64.29,0,0,0,14.62,12,77.4,77.4,0,0,0,14.8,4.56l.08.19-4.6,36.82a84.8,84.8,0,0,0,24.41-1.15Z" style="fill:url(#linear-gradient-57)"/><path d="M474.39,354.18a7.28,7.28,0,0,1-3.34-5.32,5.69,5.69,0,0,1,3.45-1.89,6.45,6.45,0,0,1,3.94,1.1c3,2,3.83,9,2.1,17.49-3.6.68-6.86,0-7.89-1.88-.8-1.46-.2-3.54.6-6.34A23.59,23.59,0,0,1,474.39,354.18Z" style="fill:#42526e"/><path d="M538.1,444.17H480c-.82,0-.26-.49,1.25-1.1L494,438a15.12,15.12,0,0,1,4.22-1.1h58.07c.82,0,.26.49-1.25,1.1l-12.75,5.12A15.12,15.12,0,0,1,538.1,444.17Z" style="fill:url(#New_Gradient_Swatch_5-8)"/><path d="M538.1,446.56H480c-.82,0-.26-.49,1.25-1.1L494,440.34a15.12,15.12,0,0,1,4.22-1.1h58.07c.82,0,.26.49-1.25,1.1l-12.75,5.12A15.12,15.12,0,0,1,538.1,446.56Z" style="fill:url(#New_Gradient_Swatch_5-9)"/><path d="M538.1,441.77H480c-.82,0-.26-.49,1.25-1.1L494,435.56a15.12,15.12,0,0,1,4.22-1.1h58.07c.82,0,.26.49-1.25,1.1l-12.75,5.12A15.12,15.12,0,0,1,538.1,441.77Z" style="fill:url(#New_Gradient_Swatch_7-3)"/></g></g></svg>