<svg xmlns="http://www.w3.org/2000/svg" xmlns:xlink="http://www.w3.org/1999/xlink" width="160" height="160" viewBox="0 0 160 160"><defs><linearGradient id="linear-gradient" x1="33.05" y1="150.65" x2="33.05" y2="-63.1" gradientUnits="userSpaceOnUse"><stop offset="0" stop-color="#c1c7d0"/><stop offset="0.75" stop-color="#c1c7d0" stop-opacity="0.1"/></linearGradient><linearGradient id="linear-gradient-2" x1="79.9" y1="150.65" x2="79.9" y2="-63.1" xlink:href="#linear-gradient"/><linearGradient id="linear-gradient-3" x1="67.78" y1="150.65" x2="67.78" y2="-63.1" xlink:href="#linear-gradient"/></defs><title>Artboard 3</title><g style="isolation:isolate"><g id="Layer_1" data-name="Layer 1"><path id="_Compound_Path_" data-name="&lt;Compound Path&gt;" d="M14.91,5H145.09a4.61,4.61,0,0,1,4.61,4.61V41.54H10.3V9.61A4.61,4.61,0,0,1,14.91,5ZM10.3,90.76H149.7V54.22H10.3Zm0,49.22H149.7V103.43H10.3Z" style="fill:#e5e8ec"/><polygon points="131.42 155 142.6 155 146.42 146.31 131.2 146.31 131.42 155" style="fill:#a5adba"/><polygon points="28.56 155 17.38 155 13.56 146.31 28.76 146.31 28.56 155" style="fill:#a5adba"/><path d="M10.3,9.61V41.54H55.8C41,33.42,26.92,24.57,15,10.59q-1.72-2-3.34-4.28A4.59,4.59,0,0,0,10.3,9.61Z" style="opacity:0.4;mix-blend-mode:multiply;fill:url(#linear-gradient)"/><path d="M134.51,103.43H10.3V140H149.5A112.48,112.48,0,0,0,134.51,103.43Z" style="opacity:0.4;mix-blend-mode:multiply;fill:url(#linear-gradient-2)"/><path d="M10.3,90.76h115c-2.19-2.63-4.55-5.27-7.12-7.89C105.76,70.23,92.52,61.63,79.31,54.22h-69Z" style="opacity:0.4;mix-blend-mode:multiply;fill:url(#linear-gradient-3)"/><polygon points="13.6 47.88 146.41 47.88 149.7 41.54 10.3 41.54 13.6 47.88" style="fill:#a5adba"/><polygon points="146.41 47.88 13.6 47.88 10.3 54.22 149.7 54.22 146.41 47.88" style="fill:#cfd4db"/><polygon points="13.6 97.09 146.41 97.09 149.7 90.76 10.3 90.76 13.6 97.09" style="fill:#a5adba"/><polygon points="13.6 146.31 146.41 146.31 149.7 139.97 10.3 139.97 13.6 146.31" style="fill:#a5adba"/><polygon points="146.41 97.09 13.6 97.09 10.3 103.43 149.7 103.43 146.41 97.09" style="fill:#cfd4db"/><circle cx="131.2" cy="23.93" r="5.76" style="fill:#0065ff"/><circle cx="115.67" cy="23.93" r="2.54" style="fill:#ffab00"/><circle cx="106.51" cy="23.93" r="2.54" style="fill:#ff991f"/><circle cx="115.67" cy="72.49" r="2.54" style="fill:#ffab00"/><circle cx="106.51" cy="72.49" r="2.54" style="fill:#ff991f"/><circle cx="115.67" cy="121.7" r="2.54" style="fill:#ffab00"/><circle cx="106.51" cy="121.7" r="2.54" style="fill:#ff991f"/><circle cx="131.2" cy="72.49" r="5.76" style="fill:#0065ff"/><circle cx="131.2" cy="121.7" r="5.76" style="fill:#0065ff"/><line x1="40.94" y1="61.41" x2="40.94" y2="85.04" style="fill:none;stroke:#fff;stroke-miterlimit:10;stroke-width:1.5370360064955628px"/><line x1="34.56" y1="61.41" x2="34.56" y2="85.04" style="fill:none;stroke:#fff;stroke-miterlimit:10;stroke-width:1.5370360064955628px"/><line x1="28.18" y1="61.41" x2="28.18" y2="85.04" style="fill:none;stroke:#fff;stroke-miterlimit:10;stroke-width:1.5370360064955628px"/><line x1="21.79" y1="61.41" x2="21.79" y2="85.04" style="fill:none;stroke:#fff;stroke-miterlimit:10;stroke-width:1.5370360064955628px"/><line x1="40.94" y1="12.12" x2="40.94" y2="35.74" style="fill:none;stroke:#fff;stroke-miterlimit:10;stroke-width:1.5370360064955628px"/><line x1="34.56" y1="12.12" x2="34.56" y2="35.74" style="fill:none;stroke:#fff;stroke-miterlimit:10;stroke-width:1.5370360064955628px"/><line x1="28.18" y1="12.12" x2="28.18" y2="35.74" style="fill:none;stroke:#fff;stroke-miterlimit:10;stroke-width:1.5370360064955628px"/><line x1="21.79" y1="12.12" x2="21.79" y2="35.74" style="fill:none;stroke:#fff;stroke-miterlimit:10;stroke-width:1.5370360064955628px"/><line x1="40.94" y1="109.89" x2="40.94" y2="133.51" style="fill:none;stroke:#fff;stroke-miterlimit:10;stroke-width:1.5370360064955628px"/><line x1="34.56" y1="109.89" x2="34.56" y2="133.51" style="fill:none;stroke:#fff;stroke-miterlimit:10;stroke-width:1.5370360064955628px"/><line x1="28.18" y1="109.89" x2="28.18" y2="133.51" style="fill:none;stroke:#fff;stroke-miterlimit:10;stroke-width:1.5370360064955628px"/><line x1="21.79" y1="109.89" x2="21.79" y2="133.51" style="fill:none;stroke:#fff;stroke-miterlimit:10;stroke-width:1.5370360064955628px"/></g></g></svg>