<svg xmlns="http://www.w3.org/2000/svg" width="275" height="275" viewBox="0 0 275 275"><title>Artboard 82</title><g style="isolation:isolate"><g id="Objects"><path d="M60.3,22.76h.75a9.83,9.83,0,0,1,9.83,9.83V51.31a0,0,0,0,1,0,0H50.47a0,0,0,0,1,0,0V32.59A9.83,9.83,0,0,1,60.3,22.76Z" style="fill:#de350b"/><path d="M141.59,22.76h.75a9.83,9.83,0,0,1,9.83,9.83V51.31a0,0,0,0,1,0,0H131.76a0,0,0,0,1,0,0V32.59A9.83,9.83,0,0,1,141.59,22.76Z" style="fill:#de350b"/><path d="M222.88,22.76h.75a9.83,9.83,0,0,1,9.83,9.83V51.31a0,0,0,0,1,0,0H213.05a0,0,0,0,1,0,0V32.59A9.83,9.83,0,0,1,222.88,22.76Z" style="fill:#de350b"/><rect x="50.47" y="51.31" width="201.01" height="201.01" style="fill:#de350b"/><path d="M60.3,22.76H81.47a9.83,9.83,0,0,1,9.83,9.83V51.3a0,0,0,0,1,0,0H50.47a0,0,0,0,1,0,0V32.59a9.83,9.83,0,0,1,9.83-9.83Z" style="fill:#de350b"/><path d="M140.4,22.76h21.16a9.83,9.83,0,0,1,9.83,9.83V51.3a0,0,0,0,1,0,0H130.57a0,0,0,0,1,0,0V32.59a9.83,9.83,0,0,1,9.83-9.83Z" style="fill:#de350b"/><path d="M220.49,22.76h21.16a9.83,9.83,0,0,1,9.83,9.83V51.3a0,0,0,0,1,0,0H210.66a0,0,0,0,1,0,0V32.59a9.83,9.83,0,0,1,9.83-9.83Z" style="fill:#de350b"/><rect x="30.06" y="51.31" width="201.01" height="201.01" style="fill:#ff5630"/><path d="M39.89,22.76H61.06a9.83,9.83,0,0,1,9.83,9.83V51.3a0,0,0,0,1,0,0H30.06a0,0,0,0,1,0,0V32.59a9.83,9.83,0,0,1,9.83-9.83Z" style="fill:#ff5630"/><path d="M120,22.76h21.16A9.83,9.83,0,0,1,151,32.59V51.3a0,0,0,0,1,0,0H110.15a0,0,0,0,1,0,0V32.59A9.83,9.83,0,0,1,120,22.76Z" style="fill:#ff5630"/><path d="M200.08,22.76h21.16a9.83,9.83,0,0,1,9.83,9.83V51.3a0,0,0,0,1,0,0H190.24a0,0,0,0,1,0,0V32.59A9.83,9.83,0,0,1,200.08,22.76Z" style="fill:#ff5630"/><path d="M39.89,22.76H61.06a9.83,9.83,0,0,1,9.83,9.83V51.3a0,0,0,0,1,0,0H30.06a0,0,0,0,1,0,0V32.59a9.83,9.83,0,0,1,9.83-9.83Z" style="fill:#ff5630"/><path d="M120,22.76h21.16A9.83,9.83,0,0,1,151,32.59V51.3a0,0,0,0,1,0,0H110.15a0,0,0,0,1,0,0V32.59A9.83,9.83,0,0,1,120,22.76Z" style="fill:#ff5630"/><path d="M200.08,22.76h21.16a9.83,9.83,0,0,1,9.83,9.83V51.3a0,0,0,0,1,0,0H190.24a0,0,0,0,1,0,0V32.59A9.83,9.83,0,0,1,200.08,22.76Z" style="fill:#ff5630"/><rect x="52.55" y="92.56" width="40.82" height="19.17" style="fill:#de350b"/><rect x="169.83" y="191.06" width="40.82" height="19.17" style="fill:#de350b"/><path d="M79.11,110.75H166a11.06,11.06,0,0,1,11.06,11.06v43.47a54.53,54.53,0,0,1-54.53,54.53h0a54.53,54.53,0,0,1-54.53-54.53V121.81a11.06,11.06,0,0,1,11.06-11.06Z" style="fill:#dfe1e5;mix-blend-mode:multiply"/><path d="M90.17,104.67h86.94a11.06,11.06,0,0,1,11.06,11.06V159.2a54.53,54.53,0,0,1-54.53,54.53h0A54.53,54.53,0,0,1,79.11,159.2V115.73a11.06,11.06,0,0,1,11.06-11.06Z" style="fill:#fafbfc"/><path id="_Rectangle_" data-name="&lt;Rectangle&gt;" d="M84,104.67H171A11.06,11.06,0,0,1,182,115.73V159.2a54.53,54.53,0,0,1-54.53,54.53h0A54.53,54.53,0,0,1,73,159.2V115.73A11.06,11.06,0,0,1,84,104.67Z" style="fill:#ebecf0"/><path d="M127.49,204.31A45.16,45.16,0,0,1,82.39,159.2V118.68A4.59,4.59,0,0,1,87,114.1h81a4.59,4.59,0,0,1,4.58,4.58V159.2A45.16,45.16,0,0,1,127.49,204.31Z" style="fill:none;stroke:#0065ff;stroke-miterlimit:10;stroke-width:2.4575945310830978px"/><path d="M132.34,223.44V159.28a4.85,4.85,0,1,0-9.69,0v64.17a27.68,27.68,0,0,0-22.79,27.21c0,.56,0,1.12.05,1.67h9.72c-.05-.55-.08-1.1-.08-1.67a18,18,0,0,1,17.94-17.95h0a18,18,0,0,1,17.94,17.95c0,.56,0,1.12-.08,1.67h9.72c0-.55.05-1.11.05-1.67A27.68,27.68,0,0,0,132.34,223.44Z" style="fill:#dfe1e5;mix-blend-mode:multiply"/><rect x="30.06" y="67.57" width="40.82" height="19.17" style="fill:#de350b"/><rect x="30.06" y="217.06" width="40.82" height="19.17" style="fill:#de350b"/><rect x="190.24" y="67.57" width="40.82" height="19.17" style="fill:#de350b"/><rect x="193.01" y="216.36" width="40.82" height="19.17" style="fill:#de350b"/><path id="_Path_" data-name="&lt;Path&gt;" d="M140.74,146.87a14.47,14.47,0,1,0-24.4,10.51,5,5,0,0,1,1.46,5l-2.59,8.93a3.69,3.69,0,0,0,3.54,4.71h15a3.69,3.69,0,0,0,3.54-4.71l-2.58-8.9a5,5,0,0,1,1.45-5A14.4,14.4,0,0,0,140.74,146.87Z" style="fill:#5e6c84"/><path d="M137.32,171.31l-2.58-8.9a5,5,0,0,1,1.45-5A14.45,14.45,0,0,0,130,132.89a14.64,14.64,0,0,0-10.81,13.51,14.4,14.4,0,0,0,4.54,11,5,5,0,0,1,1.46,5L121.21,176h12.57A3.69,3.69,0,0,0,137.32,171.31Z" style="fill:#253858"/><path d="M109.13,146a4.85,4.85,0,0,0-4.85-4.85H59a4.85,4.85,0,1,0,0,9.69h45.23A4.85,4.85,0,0,0,109.13,146Z" style="fill:#2684ff"/><path id="_Path_2" data-name="&lt;Path&gt;" d="M59,150.87h68.58a4.85,4.85,0,1,0,0-9.69H59a4.85,4.85,0,1,0,0,9.69Z" style="fill:#0065ff"/><path d="M109.13,146a4.85,4.85,0,0,0-4.85-4.85H59a4.85,4.85,0,1,0,0,9.69h45.23A4.85,4.85,0,0,0,109.13,146Z" style="fill:#2684ff"/><path d="M36.25,173.66A27.64,27.64,0,1,1,63.89,146,27.67,27.67,0,0,1,36.25,173.66Zm0-45.58A17.95,17.95,0,1,0,54.2,146,18,18,0,0,0,36.25,128.07Z" style="fill:#2684ff"/></g></g></svg>