<svg xmlns="http://www.w3.org/2000/svg" viewBox="0 0 220.76 205.59"><defs><style>.cls-1{isolation:isolate;}.cls-2,.cls-6{mix-blend-mode:multiply;}.cls-13,.cls-3,.cls-4,.cls-6{fill:none;stroke:#c1c7d0;stroke-linecap:round;stroke-miterlimit:10;stroke-width:2px;}.cls-4{stroke-dasharray:3.78 5.29;}.cls-5{fill:#0065ff;}.cls-6{stroke-dasharray:3.92 5.49;}.cls-7{fill:#0052cc;}.cls-8{fill:#4c9aff;}.cls-9{fill:#0049b0;}.cls-10{fill:#57d9a3;}.cls-11{fill:#79f2c0;}.cls-12{fill:#36b37e;}.cls-13{stroke-dasharray:3.87 5.42;}.cls-14{fill:#42526e;}.cls-15{fill:#344563;}.cls-16{fill:#505f79;}</style></defs><title>Objects-Integrations</title><g class="cls-1"><g id="Layer_2" data-name="Layer 2"><g id="Objects"><g class="cls-2"><line class="cls-3" x1="75.21" y1="187.86" x2="77.02" y2="187.11"/><line class="cls-4" x1="81.92" y1="185.1" x2="138.22" y2="161.92"/><line class="cls-3" x1="140.67" y1="160.91" x2="142.48" y2="160.17"/></g><polygon class="cls-5" points="194.53 26.55 176.9 38.24 159.27 26.55 176.9 14.87 194.53 26.55"/><line class="cls-6" x1="183.71" y1="43.22" x2="183.71" y2="97.88"/><polygon class="cls-7" points="176.9 38.24 176.9 58.17 159.27 46.48 159.27 26.55 176.9 38.24"/><polygon class="cls-8" points="194.53 26.55 194.53 46.48 176.9 58.17 176.9 38.24 194.53 26.55"/><line class="cls-6" x1="47.95" y1="42.22" x2="159.12" y2="42.22"/><polygon class="cls-5" points="220.76 99.75 167.82 134.86 114.85 99.75 167.82 64.66 220.76 99.75"/><polygon class="cls-9" points="167.82 134.86 167.82 194.72 114.85 159.61 114.85 99.75 167.82 134.86"/><polygon class="cls-8" points="220.76 99.75 220.76 159.61 167.82 194.72 167.82 134.86 220.76 99.75"/><polygon class="cls-10" points="110.54 21.6 77.95 43.22 45.34 21.6 77.95 0 110.54 21.6"/><polygon class="cls-11" points="110.54 21.6 110.54 58.45 77.95 80.06 77.95 43.22 110.54 21.6"/><polygon class="cls-5" points="141.19 148.07 167.81 130.42 194.44 148.07 167.81 165.72 141.19 148.07"/><polygon class="cls-9" points="167.81 130.42 167.81 100.32 194.44 117.98 194.44 148.07 167.81 130.42"/><polygon class="cls-8" points="141.19 148.07 141.19 117.98 167.81 100.32 167.81 130.42 141.19 148.07"/><polygon class="cls-12" points="45.34 21.6 45.34 44.98 57.23 52.86 57.23 66.3 77.95 80.06 77.95 43.22 45.34 21.6"/><g class="cls-2"><line class="cls-3" x1="24.64" y1="86.95" x2="26.02" y2="85.55"/><line class="cls-13" x1="29.8" y1="81.68" x2="60.38" y2="50.45"/><line class="cls-3" x1="62.28" y1="48.51" x2="63.65" y2="47.11"/></g><polygon class="cls-5" points="35.26 89.64 17.74 101.49 0 89.96 17.52 78.12 35.26 89.64"/><polygon class="cls-7" points="17.74 101.49 17.91 121.42 0.18 109.89 0 89.96 17.74 101.49"/><line class="cls-6" x1="20.58" y1="105.53" x2="65.87" y2="171.37"/><polygon class="cls-8" points="35.26 89.64 35.43 109.57 17.91 121.42 17.74 101.49 35.26 89.64"/><polygon class="cls-14" points="92.39 173.81 74.88 185.66 57.14 174.13 74.66 162.29 92.39 173.81"/><polygon class="cls-15" points="74.88 185.66 75.05 205.59 57.32 194.06 57.14 174.13 74.88 185.66"/><polygon class="cls-16" points="92.39 173.81 92.57 193.74 75.05 205.59 74.88 185.66 92.39 173.81"/></g></g></g></svg>