<?xml version="1.0" encoding="UTF-8" standalone="no"?>
<svg width="44px" height="44px" viewBox="0 0 44 44" version="1.1" xmlns="http://www.w3.org/2000/svg" xmlns:xlink="http://www.w3.org/1999/xlink">
    <!-- Generator: Sketch 3.6.1 (26313) - http://www.bohemiancoding.com/sketch -->
    <title>Page 1</title>
    <desc>Created with Sketch.</desc>
    <defs></defs>
    <g id="BB-Data-Center" stroke="none" stroke-width="1" fill="none" fill-rule="evenodd" stroke-linejoin="round">
        <g id="Content-block-types" transform="translate(-731.000000, -2473.000000)" stroke="#707070" stroke-width="2">
            <g id="Page-1" transform="translate(732.000000, 2474.000000)">
                <path d="M3.65213333,25.5652133 C1.6352,25.5652133 0,23.9300133 0,21.91308 C0,19.8961467 1.6352,18.2609467 3.65213333,18.2609467" id="Stroke-1" stroke-linecap="round"></path>
                <path d="M25.5652133,38.3477733 L29.2173467,38.3477733 C32.7481467,38.3477733 35.6088133,36.40084 35.6088133,32.8691067 L35.6088133,30.9259067" id="Stroke-3" stroke-linecap="round"></path>
                <path d="M25.5652133,38.3477733 C25.5652133,39.8597733 24.33788,41.0871067 22.82588,41.0871067 C21.31388,41.0871067 20.0865467,39.8597733 20.0865467,38.3477733 C20.0865467,36.8357733 21.31388,35.60844 22.82588,35.60844 C24.33788,35.60844 25.5652133,36.8357733 25.5652133,38.3477733 L25.5652133,38.3477733 Z" id="Stroke-5" stroke-linecap="round"></path>
                <path d="M10.9564933,31.0434133 L7.30436,31.0434133 C5.28742667,31.0434133 3.65222667,29.4082133 3.65222667,27.39128 L3.65222667,16.43488 C3.65222667,14.4179467 5.28742667,12.7827467 7.30436,12.7827467 L10.9564933,12.7827467 L10.9564933,31.0434133 L10.9564933,31.0434133 Z" id="Stroke-7" stroke-linecap="round"></path>
                <path d="M38.3478667,25.5652133 C40.3648,25.5652133 42,23.9300133 42,21.91308 C42,19.8961467 40.3648,18.2609467 38.3478667,18.2609467" id="Stroke-9" stroke-linecap="round"></path>
                <path d="M31.0435067,31.0434133 L34.69564,31.0434133 C36.7125733,31.0434133 38.3477733,29.4082133 38.3477733,27.39128 L38.3477733,16.43488 C38.3477733,14.4179467 36.7125733,12.7827467 34.69564,12.7827467 L31.0435067,12.7827467 L31.0435067,31.0434133 L31.0435067,31.0434133 Z" id="Stroke-11" stroke-linecap="round"></path>
                <path d="M8.21744,12.78256 C8.21744,5.72282667 13.9397067,-0.000373333333 21.0003733,-0.000373333333 C28.05824,-0.000373333333 33.7823733,5.72282667 33.7823733,12.78256" id="Stroke-13"></path>
            </g>
        </g>
    </g>
</svg>