<?xml version="1.0" encoding="UTF-8" standalone="no"?>
<svg width="44px" height="44px" viewBox="0 0 44 44" version="1.1" xmlns="http://www.w3.org/2000/svg" xmlns:xlink="http://www.w3.org/1999/xlink">
    <!-- Generator: Sketch 3.6.1 (26313) - http://www.bohemiancoding.com/sketch -->
    <title>Page 1</title>
    <desc>Created with Sketch.</desc>
    <defs></defs>
    <g id="BB-Data-Center" stroke="none" stroke-width="1" fill="none" fill-rule="evenodd">
        <g id="Content-block-types" transform="translate(-404.000000, -2473.000000)">
            <g id="Page-1" transform="translate(405.000000, 2474.000000)">
                <path d="M0,7.30436 L36.5213333,7.30436" id="Stroke-1" stroke="#707070" stroke-width="2" stroke-linecap="round" stroke-linejoin="round"></path>
                <path d="M5.47829333,2.73905333 C4.97336,2.73905333 4.56549333,3.14692 4.56549333,3.65185333 C4.56549333,4.15678667 4.97336,4.56558667 5.47829333,4.56558667 C5.98322667,4.56558667 6.39109333,4.15678667 6.39109333,3.65185333 C6.39109333,3.14692 5.98322667,2.73905333 5.47829333,2.73905333" id="Fill-3" fill="#707070"></path>
                <path d="M9.13042667,2.73905333 C8.62549333,2.73905333 8.21762667,3.14692 8.21762667,3.65185333 C8.21762667,4.15678667 8.62549333,4.56558667 9.13042667,4.56558667 C9.63536,4.56558667 10.0432267,4.15678667 10.0432267,3.65185333 C10.0432267,3.14692 9.63536,2.73905333 9.13042667,2.73905333" id="Fill-5" fill="#707070"></path>
                <path d="M12.78256,2.73905333 C12.2776267,2.73905333 11.86976,3.14692 11.86976,3.65185333 C11.86976,4.15678667 12.2776267,4.56558667 12.78256,4.56558667 C13.2874933,4.56558667 13.69536,4.15678667 13.69536,3.65185333 C13.69536,3.14692 13.2874933,2.73905333 12.78256,2.73905333" id="Fill-7" fill="#707070"></path>
                <path d="M14.60872,29.21744 L3.65232,29.21744 C1.63538667,29.21744 0.000186666667,27.58224 0.000186666667,25.5653067 L0.000186666667,3.65250667 C0.000186666667,1.63557333 1.63538667,0.000373333333 3.65232,0.000373333333 L32.8693867,0.000373333333 C34.88632,0.000373333333 36.52152,1.63557333 36.52152,3.65250667 L36.52152,14.6089067" id="Stroke-9" stroke="#707070" stroke-width="2" stroke-linecap="round" stroke-linejoin="round"></path>
                <path d="M42,31.0435067 C42,37.0961733 37.0944,41.9999067 31.0436,41.9999067 C24.9909333,41.9999067 20.0872,37.0961733 20.0872,31.0435067 C20.0872,24.9927067 24.9909333,20.0871067 31.0436,20.0871067 C37.0944,20.0871067 42,24.9927067 42,31.0435067 L42,31.0435067 Z" id="Stroke-11" stroke="#707070" stroke-width="2" stroke-linecap="round" stroke-linejoin="round"></path>
                <path d="M26.4782933,31.0435067 L35.6090933,31.0435067" id="Stroke-13" stroke="#707070" stroke-width="2" stroke-linecap="round" stroke-linejoin="round"></path>
                <path d="M31.0435067,35.60872 L31.0435067,26.47792" id="Stroke-15" stroke="#707070" stroke-width="2" stroke-linecap="round" stroke-linejoin="round"></path>
            </g>
        </g>
    </g>
</svg>