<?xml version="1.0" encoding="UTF-8" standalone="no"?>
<svg width="45px" height="47px" viewBox="0 0 45 47" version="1.1" xmlns="http://www.w3.org/2000/svg" xmlns:xlink="http://www.w3.org/1999/xlink">
    <!-- Generator: Sketch 3.6.1 (26313) - http://www.bohemiancoding.com/sketch -->
    <title>Page 1</title>
    <desc>Created with Sketch.</desc>
    <defs>
        <path id="path-1" d="M0,47 L47,47 L47,0 L0,0 L0,47 Z"></path>
    </defs>
    <g id="BB-Data-Center" stroke="none" stroke-width="1" fill="none" fill-rule="evenodd">
        <g id="Content-block-types" transform="translate(-727.000000, -2337.000000)">
            <g id="Page-1" transform="translate(726.000000, 2337.000000)">
                <g id="Group-7">
                    <path id="Stroke-1" stroke="#707070" stroke-width="2" stroke-linecap="round" stroke-linejoin="round" d="M1,46 L46,46 L1,46 L1,46 Z"></path>
                    <mask id="mask-2" fill="white">
                        <use xlink:href="#path-1"></use>
                    </mask>
                    <g id="Clip-4"></g>
                    <path d="M14.695,46 L32.304,46 L32.304,8.826 L14.695,8.826 L14.695,46 Z" id="Stroke-3" stroke="#707070" stroke-width="2" stroke-linecap="round" stroke-linejoin="round" mask="url(#mask-2)"></path>
                    <path d="M36.217,46 L44.043,46 L44.043,26.435 L36.217,26.435 L36.217,46 Z" id="Stroke-5" stroke="#707070" stroke-width="2" stroke-linecap="round" stroke-linejoin="round" mask="url(#mask-2)"></path>
                    <path d="M2.957,46 L10.783,46 L10.783,26.435 L2.957,26.435 L2.957,46 Z" id="Stroke-6" stroke="#707070" stroke-width="2" stroke-linecap="round" stroke-linejoin="round" mask="url(#mask-2)"></path>
                </g>
                <path d="M8.8261,26.4348 L8.8261,24.4778" id="Stroke-8" stroke="#707070" stroke-width="2" stroke-linecap="round" stroke-linejoin="round"></path>
                <path d="M38.1739,26.4348 L38.1739,24.4778" id="Stroke-9" stroke="#707070" stroke-width="2" stroke-linecap="round" stroke-linejoin="round"></path>
                <path d="M20.565,8.826 L26.435,8.826 L26.435,4.913 L20.565,4.913 L20.565,8.826 Z" id="Stroke-10" stroke="#707070" stroke-width="2" stroke-linecap="round" stroke-linejoin="round"></path>
                <path d="M24.4783,4.913 L24.4783,1" id="Stroke-11" stroke="#707070" stroke-width="2" stroke-linecap="round" stroke-linejoin="round"></path>
                <path d="M18.6087,14.6956 L28.3917,14.6956" id="Stroke-13" stroke="#707070" stroke-width="2" stroke-linecap="round" stroke-linejoin="round"></path>
                <path d="M18.6087,20.5652 L28.3917,20.5652" id="Stroke-14" stroke="#707070" stroke-width="2" stroke-linecap="round" stroke-linejoin="round"></path>
                <path d="M18.6087,26.4348 L28.3917,26.4348" id="Stroke-15" stroke="#707070" stroke-width="2" stroke-linecap="round" stroke-linejoin="round"></path>
                <path d="M18.6087,32.3044 L28.3917,32.3044" id="Stroke-16" stroke="#707070" stroke-width="2" stroke-linecap="round" stroke-linejoin="round"></path>
                <path d="M18.6087,38.1739 L28.3917,38.1739" id="Stroke-17" stroke="#707070" stroke-width="2" stroke-linecap="round" stroke-linejoin="round"></path>
            </g>
        </g>
    </g>
</svg>