<?xml version="1.0" encoding="UTF-8" standalone="no"?>
<svg width="44px" height="32px" viewBox="0 0 44 32" version="1.1" xmlns="http://www.w3.org/2000/svg" xmlns:xlink="http://www.w3.org/1999/xlink">
    <!-- Generator: Sketch 3.6.1 (26313) - http://www.bohemiancoding.com/sketch -->
    <title>Page 1</title>
    <desc>Created with Sketch.</desc>
    <defs></defs>
    <g id="BB-Data-Center" stroke="none" stroke-width="1" fill="none" fill-rule="evenodd" stroke-linecap="round" stroke-linejoin="round">
        <g id="Content-block-types" transform="translate(-404.000000, -2345.000000)" stroke="#707070" stroke-width="2">
            <g id="Page-1" transform="translate(405.000000, 2346.000000)">
                <path d="M23.7391467,20.9999067 C23.7391467,22.5109733 22.5118133,23.73924 20.9998133,23.73924 C19.4878133,23.73924 18.26048,22.5109733 18.26048,20.9999067 C18.26048,19.4869733 19.4878133,18.2605733 20.9998133,18.2605733 C22.5118133,18.2605733 23.7391467,19.4869733 23.7391467,20.9999067 L23.7391467,20.9999067 Z" id="Stroke-1"></path>
                <path d="M22.9365733,19.0624933 L31.9759067,10.0250267" id="Stroke-3"></path>
                <path d="M3.65213333,21.9129867 L7.30426667,21.9129867" id="Stroke-5"></path>
                <path d="M38.3478667,21.9129867 L34.6957333,21.9129867" id="Stroke-7"></path>
                <path d="M37.0264533,14.3615733 L33.6524533,15.7587733" id="Stroke-9"></path>
                <path d="M27.6374933,4.97261333 L26.2412267,8.34661333" id="Stroke-11"></path>
                <path d="M21,3.65213333 L21,7.30426667" id="Stroke-13"></path>
                <path d="M14.3625067,4.97261333 L15.7587733,8.34661333" id="Stroke-15"></path>
                <path d="M8.73450667,8.73170667 L11.3133067,11.3161067" id="Stroke-17"></path>
                <path d="M4.97354667,14.3615733 L8.34568,15.7587733" id="Stroke-19"></path>
                <path d="M21,-9.33333331e-05 C9.40146667,-9.33333331e-05 0,9.40230667 0,20.9999067 L0,29.2169733 L42,29.2169733 L42,20.9999067 C42,9.40230667 32.5985333,-9.33333331e-05 21,-9.33333331e-05 L21,-9.33333331e-05 Z" id="Stroke-21"></path>
            </g>
        </g>
    </g>
</svg>